<?xml version="1.0" encoding="utf-8"?>
<!-- Generator: Adobe Illustrator 21.1.0, SVG Export Plug-In . SVG Version: 6.00 Build 0)  -->
<svg version="1.1" id="Layer_1" xmlns="http://www.w3.org/2000/svg" xmlns:xlink="http://www.w3.org/1999/xlink" x="0px" y="0px"
	 viewBox="0 0 160 160" style="enable-background:new 0 0 160 160;" xml:space="preserve">
<style type="text/css">
	.st0{fill:#37F4A6;}
	.st1{fill:#30E291;}
	.st2{fill:#FFFFFF;}
	.st3{fill:#E6E6E6;}
	.st4{fill:#FFED48;}
	.st5{fill:#D792F4;}
	.st6{fill:#BF80E0;}
	.st7{fill:#45C5FF;}
	.st8{fill:#46F29C;}
	.st9{fill:#EBEBEC;}
	.st10{fill:#F2F2F2;}
	.st11{fill:#666666;}
	.st12{fill:#31DB8E;}
	.st13{fill:#BE79E2;}
	.st14{fill:#EFD941;}
	.st15{fill:#BE7CE0;}
	.st16{fill:#BD80DD;}
	.st17{fill:#B375D3;}
	.st18{fill:#32BAEA;}
	.st19{fill:#66FFB9;}
</style>
<g>
	<rect class="st5" width="160" height="160"/>
</g>
<path class="st9" d="M95.7,160v-56.1c0-12.2-9.9-22.1-22.1-22.1h28.8l0.3,78.2H95.7z"/>
<rect x="12.8" y="37.6" class="st2" width="135.5" height="12"/>
<rect x="21.9" y="46.8" class="st2" width="117.4" height="15.3"/>
<path class="st2" d="M30.1,39.8V160h28.3v-56.1c0-12.2,9.9-22.1,22.1-22.1h0c12.2,0,22.1,9.9,22.1,22.1V160H131V39.8H30.1z"/>
<polygon class="st9" points="131,71 30.1,62 131,62 "/>
<polygon class="st9" points="139.2,57.8 21.9,49.5 139.2,49.5 "/>
<rect x="26.7" y="62" class="st9" width="3.5" height="98"/>
<path class="st9" d="M39.8,77.6L39.8,77.6c1,0,1.7,0.8,1.7,1.7v70.9c0,1-0.8,1.7-1.7,1.7l0,0c-1,0-1.7-0.8-1.7-1.7V79.3
	C38,78.3,38.8,77.6,39.8,77.6z"/>
<path class="st9" d="M48.9,77.6L48.9,77.6c1,0,1.7,0.8,1.7,1.7v70.9c0,1-0.8,1.7-1.7,1.7h0c-1,0-1.7-0.8-1.7-1.7V79.3
	C47.2,78.3,48,77.6,48.9,77.6z"/>
<path class="st9" d="M112.4,77.6L112.4,77.6c1,0,1.7,0.8,1.7,1.7v70.9c0,1-0.8,1.7-1.7,1.7l0,0c-1,0-1.7-0.8-1.7-1.7V79.3
	C110.6,78.3,111.4,77.6,112.4,77.6z"/>
<path class="st9" d="M121.5,77.6L121.5,77.6c1,0,1.7,0.8,1.7,1.7v70.9c0,1-0.8,1.7-1.7,1.7h0c-1,0-1.7-0.8-1.7-1.7V79.3
	C119.8,78.3,120.6,77.6,121.5,77.6z"/>
</svg>
