<?xml version="1.0" encoding="utf-8"?>
<!-- Generator: Adobe Illustrator 21.1.0, SVG Export Plug-In . SVG Version: 6.00 Build 0)  -->
<svg version="1.1" id="Layer_1" xmlns="http://www.w3.org/2000/svg" xmlns:xlink="http://www.w3.org/1999/xlink" x="0px" y="0px"
	 viewBox="0 0 160 160" style="enable-background:new 0 0 160 160;" xml:space="preserve">
<style type="text/css">
	.st0{fill:#37F4A6;}
	.st1{fill:#30E291;}
	.st2{fill:#FFFFFF;}
	.st3{fill:#E6E6E6;}
	.st4{fill:#FFED48;}
	.st5{fill:#D792F4;}
	.st6{fill:#BF80E0;}
	.st7{fill:#45C5FF;}
	.st8{fill:#46F29C;}
	.st9{fill:#EBEBEC;}
	.st10{fill:#F2F2F2;}
	.st11{fill:#666666;}
	.st12{fill:#31DB8E;}
	.st13{fill:#BE79E2;}
	.st14{fill:#EFD941;}
	.st15{fill:#BE7CE0;}
	.st16{fill:#BD80DD;}
	.st17{fill:#B375D3;}
	.st18{fill:#32BAEA;}
	.st19{fill:#66FFB9;}
</style>
<rect x="0" class="st0" width="160" height="160"/>
<ellipse class="st1" cx="82.8" cy="125.2" rx="51.1" ry="11.1"/>
<circle class="st2" cx="82.8" cy="86.5" r="43"/>
<path class="st3" d="M59,57.7c-4.1-0.7-7.3,0.3-9.5,1.6c-1.1,1.3-2.1,2.7-3,4.2c0.4,0.2,0.9,0.2,1.3-0.2c0,0,3.9-4.8,10.9-3.6
	c7.4,1.3,16,11.8,18.7,20.2c3.1,9.7,3,18.9-0.3,26.5c-2.8,6.5-5.9,11.1-9.6,14c-2.4,1.9-4.7,3.1-4.7,3.1c-0.3,0.1-0.4,0.4-0.5,0.7
	c0.6,0.3,1.2,0.6,1.8,0.9c0.7-0.4,2.6-1.5,4.7-3.2c3.9-3.1,7.3-7.9,10.2-14.8c3.5-8.1,3.6-17.8,0.3-27.9
	C76.4,70.2,67.3,59.2,59,57.7z"/>
<path class="st3" d="M118.5,81.8c-5.1-11-8.6-15.6-13.9-22.5l-1.3-1.7c-4.9-6.4-6.1-10.6-6.3-11.8c-0.6-0.2-1.3-0.4-1.9-0.6
	c-0.1,0.2-0.1,0.3-0.1,0.5c0,0.2,0.7,5.1,6.8,13.1l1.3,1.7c5.2,6.8,8.7,11.3,13.7,22.1c5.3,11.4,5.9,18.3,6,18.4
	c0,0.3,0.2,0.5,0.3,0.7c0.4-1.2,0.8-2.4,1.2-3.6C123.5,95,122,89.4,118.5,81.8z"/>
<g>
	<path class="st5" d="M71.7,72.6c-0.3,0-0.6-0.2-0.8-0.4c-0.3-0.5-0.2-1.1,0.3-1.4l3.8-2.6c0.5-0.3,1.1-0.2,1.4,0.3
		c0.3,0.5,0.2,1.1-0.3,1.4l-3.8,2.6C72.1,72.6,71.9,72.6,71.7,72.6z"/>
</g>
<g>
	<path class="st5" d="M69.1,69.6c-0.3,0-0.6-0.1-0.8-0.4c-0.4-0.4-0.3-1.1,0.1-1.4l3.8-3.2c0.4-0.4,1.1-0.3,1.4,0.1s0.3,1.1-0.1,1.4
		l-3.8,3.2C69.5,69.5,69.3,69.6,69.1,69.6z"/>
</g>
<g>
	<path class="st5" d="M66.5,66.5c-0.3,0-0.5-0.1-0.7-0.3c-0.4-0.4-0.4-1,0-1.4l3.4-3.2c0.4-0.4,1-0.4,1.4,0c0.4,0.4,0.4,1,0,1.4
		l-3.4,3.2C67,66.4,66.7,66.5,66.5,66.5z"/>
</g>
<g>
	<path class="st5" d="M63,64.2c-0.2,0-0.5-0.1-0.7-0.2c-0.4-0.4-0.5-1-0.1-1.4l3.4-3.9c0.4-0.4,1-0.5,1.4-0.1c0.4,0.4,0.5,1,0.1,1.4
		l-3.4,3.9C63.6,64.1,63.3,64.2,63,64.2z"/>
</g>
<g>
	<path class="st5" d="M59.7,62.1c-0.1,0-0.3,0-0.4-0.1c-0.5-0.2-0.7-0.8-0.5-1.3l1.9-3.9c0.2-0.5,0.8-0.7,1.3-0.5
		c0.5,0.2,0.7,0.8,0.5,1.3l-1.9,3.9C60.4,61.9,60.1,62.1,59.7,62.1z"/>
</g>
<g>
	<path class="st5" d="M55.9,61.5C55.9,61.5,55.9,61.5,55.9,61.5c-0.6,0-1-0.5-1-1l0.1-4c0-0.6,0.4-1,1-1c0.6,0,1,0.5,1,1l-0.1,4
		C56.9,61.1,56.5,61.5,55.9,61.5z"/>
</g>
<g>
	<path class="st5" d="M74,76.3c-0.3,0-0.7-0.2-0.9-0.5c-0.3-0.5-0.1-1.1,0.3-1.4l3.7-2.2c0.5-0.3,1.1-0.1,1.4,0.3
		c0.3,0.5,0.1,1.1-0.3,1.4l-3.7,2.2C74.4,76.3,74.2,76.3,74,76.3z"/>
</g>
<g>
	<path class="st5" d="M75.8,80.5c-0.4,0-0.8-0.2-0.9-0.6c-0.2-0.5,0-1.1,0.6-1.3l4.1-1.7c0.5-0.2,1.1,0,1.3,0.6
		c0.2,0.5,0,1.1-0.6,1.3l-4.1,1.7C76,80.5,75.9,80.5,75.8,80.5z"/>
</g>
<g>
	<path class="st5" d="M77.3,85c-0.5,0-0.9-0.3-1-0.8c-0.1-0.5,0.2-1.1,0.7-1.2l4.1-1c0.5-0.1,1.1,0.2,1.2,0.7s-0.2,1.1-0.7,1.2
		l-4.1,1C77.5,85,77.4,85,77.3,85z"/>
</g>
<g>
	<path class="st5" d="M77.9,90.1c-0.5,0-0.9-0.3-1-0.8c-0.1-0.5,0.3-1.1,0.8-1.2l4.8-0.9c0.5-0.1,1.1,0.3,1.2,0.8
		c0.1,0.5-0.3,1.1-0.8,1.2L78,90C78,90.1,77.9,90.1,77.9,90.1z"/>
</g>
<g>
	<path class="st5" d="M78.4,95.4c-0.5,0-1-0.4-1-0.9c0-0.6,0.4-1,0.9-1.1l4.2-0.3c0.6,0,1,0.4,1.1,0.9c0,0.6-0.4,1-0.9,1.1
		L78.4,95.4C78.5,95.4,78.4,95.4,78.4,95.4z"/>
</g>
<g>
	<path class="st5" d="M82.3,100.5c0,0-0.1,0-0.1,0L78,99.9c-0.5-0.1-0.9-0.6-0.9-1.1c0.1-0.5,0.6-0.9,1.1-0.9l4.1,0.6
		c0.5,0.1,0.9,0.6,0.9,1.1C83.2,100.1,82.8,100.5,82.3,100.5z"/>
</g>
<g>
	<path class="st5" d="M80.9,105.4c-0.1,0-0.2,0-0.3,0l-3.8-1.2c-0.5-0.2-0.8-0.7-0.6-1.3c0.2-0.5,0.7-0.8,1.3-0.6l3.8,1.2
		c0.5,0.2,0.8,0.7,0.6,1.3C81.7,105.1,81.4,105.4,80.9,105.4z"/>
</g>
<g>
	<path class="st5" d="M79.3,109.9c-0.2,0-0.3,0-0.5-0.1l-3.7-1.9c-0.5-0.3-0.7-0.9-0.4-1.3s0.9-0.7,1.3-0.4l3.7,1.9
		c0.5,0.3,0.7,0.9,0.4,1.3C80,109.7,79.6,109.9,79.3,109.9z"/>
</g>
<g>
	<path class="st5" d="M77.1,113.9c-0.2,0-0.4-0.1-0.6-0.2l-3.1-2.1c-0.5-0.3-0.6-0.9-0.3-1.4c0.3-0.5,0.9-0.6,1.4-0.3l3.1,2.1
		c0.5,0.3,0.6,0.9,0.3,1.4C77.7,113.8,77.4,113.9,77.1,113.9z"/>
</g>
<g>
	<path class="st5" d="M75,118c-0.3,0-0.5-0.1-0.7-0.3l-3-3.4c-0.4-0.4-0.3-1,0.1-1.4s1-0.3,1.4,0.1l3,3.4c0.4,0.4,0.3,1-0.1,1.4
		C75.4,117.9,75.2,118,75,118z"/>
</g>
<g>
	<path class="st5" d="M72,121.1c-0.3,0-0.6-0.1-0.8-0.4l-2.3-3c-0.3-0.4-0.3-1.1,0.2-1.4c0.4-0.3,1.1-0.3,1.4,0.2l2.3,3
		c0.3,0.4,0.3,1.1-0.2,1.4C72.5,121,72.3,121.1,72,121.1z"/>
</g>
<g>
	<path class="st5" d="M68.7,124.1c-0.4,0-0.7-0.2-0.9-0.5l-1.9-3.5c-0.3-0.5-0.1-1.1,0.4-1.4c0.5-0.3,1.1-0.1,1.4,0.4l1.9,3.5
		c0.3,0.5,0.1,1.1-0.4,1.4C69,124.1,68.9,124.1,68.7,124.1z"/>
</g>
<g>
	<path class="st5" d="M94.7,49.9c-0.4,0-0.8-0.3-1-0.7c-0.2-0.5,0.1-1.1,0.7-1.2l3.8-1.1c0.5-0.2,1.1,0.1,1.2,0.7
		c0.2,0.5-0.1,1.1-0.7,1.2L95,49.9C94.9,49.9,94.8,49.9,94.7,49.9z"/>
</g>
<g>
	<path class="st5" d="M96.6,54.9c-0.3,0-0.6-0.2-0.8-0.5c-0.3-0.5-0.2-1.1,0.3-1.4l4-2.6c0.5-0.3,1.1-0.2,1.4,0.3
		c0.3,0.5,0.2,1.1-0.3,1.4l-4,2.6C97,54.8,96.8,54.9,96.6,54.9z"/>
</g>
<g>
	<path class="st5" d="M98.9,59c-0.3,0-0.6-0.2-0.8-0.4c-0.3-0.5-0.2-1.1,0.3-1.4l4.4-3c0.5-0.3,1.1-0.2,1.4,0.3
		c0.3,0.5,0.2,1.1-0.3,1.4l-4.4,3C99.3,59,99.1,59,98.9,59z"/>
</g>
<g>
	<path class="st5" d="M102.1,62.9c-0.3,0-0.6-0.1-0.8-0.4c-0.3-0.4-0.2-1.1,0.2-1.4l3.9-2.9c0.4-0.3,1.1-0.2,1.4,0.2
		c0.3,0.4,0.2,1.1-0.2,1.4l-3.9,2.9C102.5,62.8,102.3,62.9,102.1,62.9z"/>
</g>
<g>
	<path class="st5" d="M105.4,67.1c-0.3,0-0.6-0.1-0.8-0.3c-0.4-0.4-0.3-1,0.1-1.4l3.7-3.2c0.4-0.4,1-0.3,1.4,0.1
		c0.4,0.4,0.3,1-0.1,1.4l-3.7,3.2C105.9,67,105.6,67.1,105.4,67.1z"/>
</g>
<g>
	<path class="st5" d="M108.3,71.3c-0.3,0-0.6-0.1-0.8-0.4c-0.3-0.4-0.3-1.1,0.2-1.4l3.8-3c0.4-0.3,1.1-0.3,1.4,0.2
		c0.3,0.4,0.3,1.1-0.2,1.4l-3.8,3C108.7,71.3,108.5,71.3,108.3,71.3z"/>
</g>
<g>
	<path class="st5" d="M111.2,75.6c-0.3,0-0.6-0.1-0.8-0.4c-0.3-0.5-0.2-1.1,0.2-1.4l3.7-2.6c0.5-0.3,1.1-0.2,1.4,0.2
		c0.3,0.5,0.2,1.1-0.2,1.4l-3.7,2.6C111.6,75.5,111.4,75.6,111.2,75.6z"/>
</g>
<g>
	<path class="st5" d="M113.2,79.9c-0.4,0-0.7-0.2-0.9-0.5c-0.3-0.5-0.1-1.1,0.4-1.4l4.2-2.3c0.5-0.3,1.1-0.1,1.4,0.4
		c0.3,0.5,0.1,1.1-0.4,1.4l-4.2,2.3C113.6,79.8,113.4,79.9,113.2,79.9z"/>
</g>
<g>
	<path class="st5" d="M115.7,84.2c-0.4,0-0.7-0.2-0.9-0.6c-0.2-0.5,0-1.1,0.4-1.3l3.8-1.9c0.5-0.2,1.1,0,1.3,0.4
		c0.2,0.5,0,1.1-0.4,1.3l-3.8,1.9C116,84.2,115.8,84.2,115.7,84.2z"/>
</g>
<g>
	<path class="st5" d="M117.6,88.9c-0.4,0-0.7-0.2-0.9-0.6c-0.2-0.5,0-1.1,0.4-1.3l4-2c0.5-0.2,1.1,0,1.3,0.4s0,1.1-0.4,1.3l-4,2
		C117.9,88.9,117.7,88.9,117.6,88.9z"/>
</g>
<g>
	<path class="st5" d="M119,93.1c-0.4,0-0.8-0.2-0.9-0.7c-0.2-0.5,0.1-1.1,0.6-1.3l4.2-1.6c0.5-0.2,1.1,0.1,1.3,0.6
		c0.2,0.5-0.1,1.1-0.6,1.3l-4.2,1.6C119.2,93.1,119.1,93.1,119,93.1z"/>
</g>
<path class="st5" d="M52.2,57.1c-0.1-0.2-0.2-0.3-0.3-0.5c-0.5,0.5-1,1-1.4,1.6l1,3.2c0.1,0.4,0.5,0.7,1,0.7c0.1,0,0.2,0,0.3,0
	c0.5-0.2,0.8-0.7,0.7-1.2L52.2,57.1z"/>
<path class="st5" d="M124.7,94.6l-4.6,1c-0.5,0.1-0.9,0.7-0.8,1.2c0.1,0.5,0.5,0.8,1,0.8c0.1,0,0.1,0,0.2,0l4-0.9
	c0.2-0.7,0.3-1.4,0.5-2.1C124.9,94.6,124.8,94.6,124.7,94.6z"/>
<path class="st5" d="M64.6,121.4c-0.2-0.5-0.8-0.8-1.3-0.5c-0.5,0.2-0.8,0.8-0.5,1.3l1.2,2.9c0.7,0.3,1.4,0.7,2.1,1
	c0.1-0.3,0.2-0.6,0.1-0.9L64.6,121.4z"/>
</svg>
