<?xml version="1.0" encoding="utf-8"?>
<!-- Generator: Adobe Illustrator 21.1.0, SVG Export Plug-In . SVG Version: 6.00 Build 0)  -->
<svg version="1.1" id="Layer_1" xmlns="http://www.w3.org/2000/svg" xmlns:xlink="http://www.w3.org/1999/xlink" x="0px" y="0px"
	 viewBox="0 0 160 160" style="enable-background:new 0 0 160 160;" xml:space="preserve">
<style type="text/css">
	.st0{fill:#D792F4;}
	.st1{fill:#45C5FF;}
	.st2{fill:#32BAEA;}
	.st3{fill:#FFED48;}
	.st4{fill:#37F4A6;}
	.st5{fill:#30E291;}
	.st6{fill:#EFD941;}
</style>
<g>
	<rect class="st0" width="160" height="160"/>
</g>
<g>
	<path class="st1" d="M160,132.6v-44l-3.7-2.2l-5.9,3.4c-3.8,2.2-8.5,2.1-12.1-0.4l-4.6-3.1l-5.8,3.3c-4,2.3-9,1.9-12.7-1l-2.9-2.3
		l-5,3.1c-0.7,0.4-1.4,0.8-2.2,1.1H32.8V160H160V132.6L160,132.6z"/>
</g>
<g>
	<path class="st2" d="M160,102.5l-4.1,2.4c-3.8,2.3-8.6,2.1-12.4-0.3l-4.7-3.1l-6.7,3.8c-3.6,2-8.1,2-11.6-0.1l-6.3-3.7l-6,3.4
		c-3.8,2.2-8.6,2.1-12.3-0.4l-4.6-3.1l-5.9,3.3c-4.1,2.3-9.2,1.9-12.9-1l-3-2.3l-5,3.1c-2,1.2-4.2,1.8-6.4,1.7v38.3h102V102.5z"/>
</g>
<g>
	<path class="st1" d="M160,120.5l-4.1,2.4c-3.8,2.3-8.6,2.1-12.4-0.3l-4.7-3.1l-6.7,3.8c-3.6,2-8.1,2-11.6-0.1l-6.3-3.7l-6,3.4
		c-3.8,2.2-8.6,2.1-12.3-0.4l-4.6-3.1l-5.9,3.3c-4.1,2.3-9.2,1.9-12.9-1l-3-2.3l-5,3.1c-2,1.2-4.2,1.8-6.4,1.7V160h102V120.5z"/>
</g>
<g>
	<path class="st2" d="M160,137.8l-4.1,2.4c-3.8,2.3-8.6,2.1-12.4-0.3l-4.7-3.1l-6.7,3.8c-3.6,2-8.1,2-11.6-0.1l-6.3-3.7l-6,3.4
		c-3.8,2.2-8.6,2.1-12.3-0.4l-4.6-3.1l-5.9,3.3c-4.1,2.3-9.2,1.9-12.9-1l-3-2.3l-5,3.1c-2,1.2-4.2,1.8-6.4,1.7V160h102V137.8z"/>
</g>
<g>
	<path class="st3" d="M105.2,90.6c0,0-52.7-10.5-73.4-13S0,73.7,0,73.7V160h107.5c0,0-51-31.6-49-49.6S105.2,90.6,105.2,90.6z"/>
</g>
<path class="st4" d="M4.6,58.9c0,0,7.9-15.8,27.7-22.1s37.5,1.5,37.5,1.5l0.8,2.6L33.8,52.6l-28.1,9L4.6,58.9z"/>
<path class="st5" d="M33.8,52.6l-28.1,9l-1.2-2.7c0,0,7.9-15.8,27.7-22.1c0,0-17.5,10.4-16.3,14.7C17.1,55.8,33.8,52.6,33.8,52.6z"
	/>
<rect x="42.8" y="48.1" transform="matrix(0.9575 -0.2884 0.2884 0.9575 -18.4693 15.6967)" class="st4" width="2.5" height="45"/>
<g>
	<path class="st6" d="M0,160h107.5c0,0-42.8-2.9-69.9-11.6S0,130.8,0,130.8V160z"/>
</g>
<polygon class="st6" points="49.3,92.4 0,105.5 0,101.6 48.8,90.6 "/>
<path class="st6" d="M0,91.2v18.6c13.2-1.5,22.5-5.1,22.5-9.3C22.5,96.3,13.2,92.7,0,91.2z"/>
</svg>
