<?xml version="1.0" encoding="utf-8"?>
<!-- Generator: Adobe Illustrator 21.1.0, SVG Export Plug-In . SVG Version: 6.00 Build 0)  -->
<svg version="1.1" id="Layer_1" xmlns="http://www.w3.org/2000/svg" xmlns:xlink="http://www.w3.org/1999/xlink" x="0px" y="0px"
	 viewBox="0 0 160 160" style="enable-background:new 0 0 160 160;" xml:space="preserve">
<style type="text/css">
	.st0{fill:#37F4A6;}
	.st1{fill:#30E291;}
	.st2{fill:#FFFFFF;}
	.st3{fill:#E6E6E6;}
	.st4{fill:#FFED48;}
	.st5{fill:#D792F4;}
	.st6{fill:#BF80E0;}
	.st7{fill:#45C5FF;}
	.st8{fill:#46F29C;}
	.st9{fill:#EBEBEC;}
	.st10{fill:#F2F2F2;}
	.st11{fill:#666666;}
	.st12{fill:#31DB8E;}
	.st13{fill:#BE79E2;}
	.st14{fill:#EFD941;}
	.st15{fill:#BE7CE0;}
	.st16{fill:#BD80DD;}
	.st17{fill:#B375D3;}
	.st18{fill:#32BAEA;}
	.st19{fill:#66FFB9;}
</style>
<g>
	<rect x="0" class="st4" width="160" height="160"/>
</g>
<path class="st7" d="M120,76.7c-5.6,0-10.8,1.7-15,4.7L95.7,70v-9.8c0-1.1-0.9-2-2-2s-2,0.9-2,2v8.6L50.4,70L46.5,59h5.8
	c1.1,0,2-0.9,2-2s-0.9-2-2-2h-8.7c-0.7,0-1.3,0.3-1.6,0.8c-0.4,0.5-0.5,1.2-0.2,1.8l5.1,14.4l-1.5,5.2c-1.7-0.4-3.5-0.6-5.4-0.6
	c-14.5,0-26.3,11.8-26.3,26.3c0,14.5,11.8,26.3,26.3,26.3c14.5,0,26.3-11.8,26.3-26.3c0-5.9-2-11.4-5.3-15.8l16.8,17.2c0,0,0,0,0,0
	l0,0c0,0,0.1,0.1,0.1,0.1c0.1,0.1,0.1,0.1,0.2,0.2c0.1,0,0.1,0.1,0.2,0.1c0.1,0,0.1,0.1,0.1,0.1c0,0,0,0,0,0c0.1,0,0.2,0.1,0.3,0.1
	c0,0,0.1,0,0.1,0c0,0,0.1,0,0.1,0c0.1,0,0.2,0,0.3,0c0,0,0,0,0,0h14.4c1,13.6,12.4,24.3,26.3,24.3c14.5,0,26.3-11.8,26.3-26.3
	C146.3,88.5,134.6,76.7,120,76.7z M105.1,87.8l10.7,13.2h-17C99.3,95.9,101.6,91.3,105.1,87.8z M93.8,101H82.4l11.8-26.5l7.7,9.5
	C97.3,88.3,94.3,94.3,93.8,101z M90.6,72.8L78.7,99.5L53.6,73.9L90.6,72.8z M40,124.3c-11.8,0-21.3-9.6-21.3-21.3S28.2,81.7,40,81.7
	c1.4,0,2.7,0.1,4,0.4l-5.9,20.4c-0.3,1.1,0.3,2.2,1.4,2.5c0.2,0.1,0.4,0.1,0.6,0.1c0.9,0,1.7-0.6,1.9-1.4l5.9-20.4
	C55.7,86.3,61.3,94,61.3,103C61.3,114.8,51.7,124.3,40,124.3z M49.2,78.4l0.7-2.5l6.4,6.5C54.2,80.7,51.8,79.3,49.2,78.4z
	 M120,124.3c-11.1,0-20.2-8.5-21.2-19.3H120c0.8,0,1.5-0.4,1.8-1.1c0.3-0.7,0.2-1.5-0.3-2.1l-13.4-16.5c3.4-2.3,7.5-3.6,11.9-3.6
	c11.8,0,21.3,9.6,21.3,21.3S131.8,124.3,120,124.3z"/>
<path class="st7" d="M106.7,59.5l-27,3.2c-1.3,0.2-2.5-0.8-2.6-2.1v0c-0.1-1.2,0.6-2.3,1.8-2.6l26.6-7c1.4-0.4,2.8,0.6,3,2l0.4,3.8
	C108.9,58.2,108,59.4,106.7,59.5z"/>
<g>
	<path class="st5" d="M160,132.7c0,0-49.2-5-80-5s-80,5-80,5V160h160V132.7z"/>
</g>
</svg>
