<?xml version="1.0" encoding="utf-8"?>
<!-- Generator: Adobe Illustrator 21.1.0, SVG Export Plug-In . SVG Version: 6.00 Build 0)  -->
<svg version="1.1" id="Layer_1" xmlns="http://www.w3.org/2000/svg" xmlns:xlink="http://www.w3.org/1999/xlink" x="0px" y="0px"
	 viewBox="0 0 160 160" style="enable-background:new 0 0 160 160;" xml:space="preserve">
<style type="text/css">
	.st0{fill:#37F4A6;}
	.st1{fill:#30E291;}
	.st2{fill:#FFFFFF;}
	.st3{fill:#E6E6E6;}
	.st4{fill:#FFED48;}
	.st5{fill:#D792F4;}
	.st6{fill:#BF80E0;}
	.st7{fill:#45C5FF;}
	.st8{fill:#46F29C;}
	.st9{fill:#EBEBEC;}
	.st10{fill:#F2F2F2;}
	.st11{fill:#666666;}
	.st12{fill:#31DB8E;}
	.st13{fill:#BE79E2;}
	.st14{fill:#EFD941;}
	.st15{fill:#BE7CE0;}
	.st16{fill:#BD80DD;}
	.st17{fill:#B375D3;}
	.st18{fill:#32BAEA;}
	.st19{fill:#66FFB9;}
</style>
<g>
	<rect x="0" class="st5" width="160" height="160"/>
</g>
<path class="st0" d="M9.4,81.1c0,0,32,7.2,73.7,7.8c43,0.6,73.3-5.1,73.3-5.1s6.6,35.7-72.8,36.1S9.4,81.1,9.4,81.1z"/>
<g>
	<path class="st7" d="M151,105l-5.3-3.5l-5.7,3.8c-4.1,2.7-9.3,2.9-13.6,0.6l-8.2-4.4l-6.5,3.9c-4.4,2.6-9.8,2.5-14.1-0.3l-5.4-3.6
		l-7.7,4.4c-4.1,2.3-9.2,2.3-13.3-0.1l-7.2-4.3l-6.8,4c-4.4,2.6-9.8,2.4-14-0.4l-5.3-3.5l-6.8,3.8c-4.7,2.6-10.5,2.2-14.7-1.1
		l-3.4-2.7l-5.8,3.6c-2.2,1.4-4.8,2.1-7.3,2V160h160v-52.8C156.9,107.6,153.7,106.9,151,105z"/>
</g>
<g>
	<path class="st18" d="M151,121.2l-5.3-3.5l-5.7,3.8c-4.1,2.7-9.3,2.9-13.6,0.6l-8.2-4.4l-6.5,3.9c-4.4,2.6-9.8,2.5-14.1-0.3
		l-5.4-3.6l-7.7,4.4c-4.1,2.3-9.2,2.3-13.3-0.1l-7.2-4.3l-6.8,4c-4.4,2.6-9.8,2.4-14-0.4l-5.3-3.5l-6.8,3.8
		c-4.7,2.6-10.5,2.2-14.7-1.1l-3.4-2.7l-5.8,3.6c-2.2,1.4-4.8,2.1-7.3,2V160h160v-36.7C156.9,123.7,153.7,123,151,121.2z"/>
</g>
<path class="st19" d="M117.5,121l-5.9-9.7c-1.3-2.1-3.9-3-6.1-2.1L87.6,80l1.3-0.8c0.5-0.3,0.6-0.9,0.4-1.4
	c-0.3-0.5-0.9-0.6-1.4-0.4l-4.5,2.7c-0.5,0.3-0.6,0.9-0.4,1.4c0.2,0.3,0.5,0.5,0.9,0.5c0.2,0,0.3,0,0.5-0.1l1.4-0.8l17.9,29.1
	c-1.8,1.6-2.2,4.3-0.9,6.4l5.9,9.7c1.5,2.4,4.6,3.2,7,1.7C118.2,126.5,119,123.4,117.5,121z"/>
</svg>
