<?xml version="1.0" encoding="utf-8"?>
<!-- Generator: Adobe Illustrator 21.1.0, SVG Export Plug-In . SVG Version: 6.00 Build 0)  -->
<svg version="1.1" id="Layer_1" xmlns="http://www.w3.org/2000/svg" xmlns:xlink="http://www.w3.org/1999/xlink" x="0px" y="0px"
	 viewBox="0 0 160 160" style="enable-background:new 0 0 160 160;" xml:space="preserve">
<style type="text/css">
	.st0{fill:#37F4A6;}
	.st1{fill:#30E291;}
	.st2{fill:#FFFFFF;}
	.st3{fill:#E6E6E6;}
	.st4{fill:#FFED48;}
	.st5{fill:#D792F4;}
	.st6{fill:#BF80E0;}
	.st7{fill:#45C5FF;}
	.st8{fill:#46F29C;}
	.st9{fill:#EBEBEC;}
	.st10{fill:#F2F2F2;}
	.st11{fill:#666666;}
	.st12{fill:#31DB8E;}
	.st13{fill:#BE79E2;}
	.st14{fill:#EFD941;}
	.st15{fill:#BE7CE0;}
	.st16{fill:#BD80DD;}
	.st17{fill:#B375D3;}
	.st18{fill:#32BAEA;}
	.st19{fill:#66FFB9;}
</style>
<g>
	<rect class="st4" width="160" height="160"/>
</g>
<path class="st0" d="M135.8,90.5c-7-6.8-17.2-6.6-19.1-6.7c-15.3-0.3-37.2-0.5-57.2-0.8l-2.9-15.7c0,0-5.6,0.3-13.5,3
	c-1.2,0.4-2.4,0.8-3.6,1.3l-17.7-4.2c-0.3-0.1-0.5,0.1-0.6,0.3l-0.8,4c0,0.2,0.1,0.4,0.4,0.5c0.2,0.1,5.6,2.4,10,4.3
	c-2.3,2.2-4.1,5.2-5.1,9.7c-2.3,10.8,0.2,25.5,0.2,25.5h4.5h3.2h39.7h23.2h35.7h2.5h8.2C142.8,111.8,142.8,97.3,135.8,90.5z"/>
<g>
	<rect y="122.3" class="st7" width="160" height="37.7"/>
</g>
<g>
	<path class="st7" d="M116.6,83.8c0,0-14.8-9.4-28.8-13.4s-31.3-3.1-31.3-3.1L59.4,83L116.6,83.8z"/>
</g>
<path class="st1" d="M141.5,105H27.7h-4.2h-0.2c0,0,0,0,0,0c-1.8,0.1-3.2,1.5-3.2,3.4c0,1.9,1.5,3.4,3.4,3.4h2.3h1.8h113.9
	c1.9,0,3.4-1.5,3.4-3.4S143.4,105,141.5,105z"/>
<circle class="st15" cx="47.3" cy="105.8" r="16.5"/>
<g>
	<circle class="st5" cx="47.3" cy="105.8" r="12.1"/>
</g>
<circle class="st15" cx="114.2" cy="108.5" r="13.8"/>
<g>
	<circle class="st5" cx="114.2" cy="108.5" r="9.7"/>
</g>
<g>
	<rect y="136.8" class="st4" width="32.8" height="5.7"/>
</g>
<g>
	<rect x="63.6" y="136.8" class="st4" width="32.8" height="5.7"/>
</g>
<g>
	<rect x="127.2" y="136.8" class="st4" width="32.8" height="5.7"/>
</g>
</svg>
