<?xml version="1.0" encoding="utf-8"?>
<!-- Generator: Adobe Illustrator 21.1.0, SVG Export Plug-In . SVG Version: 6.00 Build 0)  -->
<svg version="1.1" id="Layer_1" xmlns="http://www.w3.org/2000/svg" xmlns:xlink="http://www.w3.org/1999/xlink" x="0px" y="0px"
	 viewBox="0 0 160 160" style="enable-background:new 0 0 160 160;" xml:space="preserve">
<style type="text/css">
	.st0{fill:#37F4A6;}
	.st1{fill:#30E291;}
	.st2{fill:#FFFFFF;}
	.st3{fill:#E6E6E6;}
	.st4{fill:#FFED48;}
	.st5{fill:#D792F4;}
	.st6{fill:#BF80E0;}
	.st7{fill:#45C5FF;}
	.st8{fill:#46F29C;}
	.st9{fill:#EBEBEC;}
	.st10{fill:#F2F2F2;}
	.st11{fill:#666666;}
	.st12{fill:#31DB8E;}
	.st13{fill:#BE79E2;}
	.st14{fill:#EFD941;}
	.st15{fill:#BE7CE0;}
	.st16{fill:#BD80DD;}
	.st17{fill:#B375D3;}
	.st18{fill:#32BAEA;}
	.st19{fill:#66FFB9;}
</style>
<rect class="st0" width="160" height="160"/>
<g>
	<rect x="19.7" y="33.5" class="st5" width="86.2" height="126.5"/>
</g>
<g>
	<rect x="29.8" y="43.3" class="st13" width="13.7" height="21.7"/>
</g>
<g>
	<rect x="56.4" y="43.3" class="st13" width="13.7" height="21.7"/>
</g>
<g>
	<rect x="83" y="43.3" class="st13" width="13.7" height="21.7"/>
</g>
<g>
	<rect x="29.8" y="75.8" class="st13" width="13.7" height="21.7"/>
</g>
<g>
	<rect x="56.4" y="75.8" class="st13" width="13.7" height="21.7"/>
</g>
<g>
	<rect x="83" y="75.8" class="st13" width="13.7" height="21.7"/>
</g>
<g>
	<rect x="29.8" y="108.8" class="st13" width="13.7" height="21.7"/>
</g>
<g>
	<rect x="53.6" y="80.3" class="st4" width="86.2" height="79.7"/>
</g>
<g>
	<rect x="63.2" y="90.7" class="st14" width="13.7" height="21.7"/>
</g>
<g>
	<rect x="89.8" y="90.7" class="st14" width="13.7" height="21.7"/>
</g>
<g>
	<rect x="116.5" y="90.7" class="st14" width="13.7" height="21.7"/>
</g>
<g>
	<rect x="63.2" y="122.3" class="st14" width="13.7" height="21.7"/>
</g>
<g>
	<rect x="89.8" y="122.3" class="st14" width="13.7" height="21.7"/>
</g>
<g>
	<rect x="116.5" y="122.3" class="st14" width="13.7" height="21.7"/>
</g>
</svg>
