<?xml version="1.0" encoding="utf-8"?>
<!-- Generator: Adobe Illustrator 21.1.0, SVG Export Plug-In . SVG Version: 6.00 Build 0)  -->
<svg version="1.1" id="Layer_1" xmlns="http://www.w3.org/2000/svg" xmlns:xlink="http://www.w3.org/1999/xlink" x="0px" y="0px"
	 viewBox="0 0 160 160" style="enable-background:new 0 0 160 160;" xml:space="preserve">
<style type="text/css">
	.st0{fill:#45C5FF;}
	.st1{fill:#32BAEA;}
	.st2{fill:#FFFFFF;}
	.st3{fill:#29CC7E;}
	.st4{fill:#30E291;}
	.st5{fill:#37F4A6;}
</style>
<g>
	<rect class="st0" width="160" height="160"/>
</g>
<g>
	<g>
		<path class="st1" d="M2.8,149.7l8.5,10.3H18l7-7.7v7.7h3v-10.4l8.6,10.4h6.6l7-7.7v7.7h3v-10.3l8.5,10.3h6.6l7-7.7v7.7h3v-10.3
			l8.5,10.3h6.6l7-7.7v7.7h3v-10.3L112,160h6.6l7-7.7v7.7h3v-10.3l8.5,10.3h6.6l7-7.7v7.7h3v-10.3l5.1,6.2c0.3,0.4,0.7,0.5,1.2,0.5
			v-3.9l-5.1-6.2h5.1v-3h-5l5-5.4v-2.4c-0.6-0.4-1.5-0.4-2,0.2l-4.3,4.7v-3.1c0-0.8-0.7-1.5-1.5-1.5s-1.5,0.7-1.5,1.5v2.8l-2-2.4
			c-0.5-0.6-1.5-0.7-2.1-0.2c-0.6,0.5-0.7,1.5-0.2,2.1l3.2,3.9h-19.8l1.8-1.9c0.6-0.6,0.5-1.6-0.1-2.1c-0.6-0.6-1.6-0.5-2.1,0.1
			l-0.8,0.9c-0.1-0.8-0.7-1.4-1.5-1.4c-0.8,0-1.4,0.6-1.5,1.4l-1.3-1.4c-0.6-0.6-1.5-0.7-2.1-0.1s-0.7,1.5-0.1,2.1l2.3,2.5h-19.6
			l5.8-6.4c0.6-0.6,0.5-1.6-0.1-2.1c-0.6-0.6-1.6-0.5-2.1,0.1l-4.8,5.3v-11.1c0-0.8-0.7-1.5-1.5-1.5s-1.5,0.7-1.5,1.5V140L92,129.7
			l5.3-5.8c0.6-0.6,0.5-1.6-0.1-2.1c-0.6-0.6-1.6-0.5-2.1,0.1l-5,5.5l-10.2-12.3h9c0.8,0,1.5-0.7,1.5-1.5s-0.7-1.5-1.5-1.5h-8.8
			l5.9-6.5c0.6-0.6,0.5-1.6-0.1-2.1c-0.6-0.6-1.6-0.5-2.1,0.1l-5.5,6.1V85.9c0,0,0,0,0,0c0,0,0,0,0-0.1c0-0.2-0.1-0.4-0.1-0.5
			c0,0,0,0,0,0c-0.1-0.2-0.2-0.3-0.3-0.4c0,0,0,0,0,0c0,0,0,0,0,0c-0.1-0.1-0.3-0.2-0.5-0.3c0,0,0,0-0.1,0c-0.1,0-0.2-0.1-0.4-0.1
			c0.3-0.3,0.5-0.7,0.5-1.1c0-0.7-0.4-1.2-1-1.4c0.2-0.5,0.1-1.2-0.3-1.6L65.7,69.8l1.8-1.9c0.6-0.6,0.5-1.6-0.1-2.1
			c-0.6-0.6-1.6-0.5-2.1,0.1l-1.7,1.8l-8.3-8.3c-0.6-0.6-1.5-0.6-2.1,0c0,0,0,0,0,0.1v-1.2c0-0.8-0.6-1.4-1.3-1.5
			c0-0.4-0.2-0.8-0.5-1.1c-0.6-0.6-1.6-0.5-2.1,0.1l-9.5,10.4L27.7,51.6c-0.5-0.6-1.5-0.7-2.1-0.2c-0.6,0.5-0.7,1.5-0.2,2.1l0.5,0.6
			c0,0,0,0,0,0c-0.2,0.1-0.3,0.2-0.4,0.3c0,0,0,0,0,0L14.6,66.3L2.5,51.6c0,0,0,0-0.1-0.1c0,0-0.1-0.1-0.1-0.1c0,0-0.1-0.1-0.1-0.1
			c0,0-0.1-0.1-0.1-0.1c0,0-0.1-0.1-0.1-0.1c0,0-0.1,0-0.1-0.1c0,0-0.1,0-0.1,0c0,0-0.1,0-0.1,0c-0.1,0-0.1,0-0.2,0c0,0,0,0-0.1,0
			c0,0,0,0-0.1,0c-0.1,0-0.1,0-0.2,0c0,0-0.1,0-0.1,0c0,0-0.1,0-0.1,0c0,0-0.1,0-0.1,0.1c0,0-0.1,0-0.1,0.1c0,0-0.1,0.1-0.1,0.1
			c0,0,0,0-0.1,0c0,0,0,0-0.1,0.1c0,0-0.1,0.1-0.1,0.1c0,0-0.1,0.1-0.1,0.1c0,0-0.1,0.1-0.1,0.1c0,0,0,0.1-0.1,0.1V160h2.8V149.7z
			 M150.7,146.3v1.5l-10.4,11.4l-10.7-12.9H150.7z M125.6,146.3v1.5l-10.4,11.4l-10.7-12.9H125.6z M100.5,147.9l-10.4,11.4
			l-10.7-12.9h21V147.9z M99.4,143.3H79.6L90,131.9L99.4,143.3z M78.3,117.8l9.7,11.8l-9.7,10.7V117.8z M75.3,147.9l-10.4,11.4
			l-10.7-12.9h21V147.9z M54.4,143.3L64.8,132l9.4,11.4H54.4z M75.3,140l-8.5-10.2l8.5-9.3V140z M75.3,116l-10.4,11.4l-10.2-12.3
			h20.5V116z M55,112.1l9.8-10.8l8.9,10.8H55z M75.3,109.3L66.8,99l8.5-9.3V109.3z M75.7,84.9C75.7,84.9,75.7,84.9,75.7,84.9
			L64.9,96.7l-9.9-11.9h20.8C75.8,84.8,75.7,84.8,75.7,84.9z M63.7,72l9.7,9.7H54.8L63.7,72z M53.2,61.5
			C53.2,61.5,53.2,61.5,53.2,61.5l8.4,8.4l-8.4,9.2V61.5z M53.2,87.2l9.7,11.7l-9.7,10.6V87.2z M53.2,117.9l9.7,11.7l-9.7,10.6
			V117.9z M50.2,147.9l-10.4,11.4l-10.7-12.9h21V147.9z M29.3,143.3L39.7,132l9.4,11.4H29.3z M50.2,140l-8.5-10.2l8.5-9.3V140z
			 M50.2,116l-10.4,11.4l-10.2-12.3h20.5V116z M29.8,112.1l9.8-10.8l8.9,10.8H29.8z M50.2,109.3L41.7,99l8.5-9.3V109.3z M50.2,85.3
			L39.8,96.7l-9.9-11.9h20.2V85.3z M50.2,59.3v19.5l-8.5-10.2L50.2,59.3z M48.7,81.8h-19l10-10.9L48.7,81.8z M28,56.7l9.8,11.8
			L28,79.2V56.7z M28,87.1l9.8,11.8L28,109.7V87.1z M28,117.8l9.8,11.8L28,140.3V117.8z M25,147.9l-10.4,11.4L3.9,146.3h21V147.9z
			 M4.1,143.3L14.5,132l9.4,11.4H4.1z M25,140l-8.5-10.2l8.5-9.3V140z M25,116l-10.4,11.4L4.4,115.1H25V116z M4.6,112.1l9.8-10.8
			l8.9,10.8H4.6z M25,109.3L16.5,99l8.5-9.3V109.3z M25,85.3L14.6,96.7L4.7,84.8H25V85.3z M25,59.3v19.5l-8.5-10.2L25,59.3z
			 M23.5,81.8h-19l10-10.9L23.5,81.8z M2.8,56.7l9.7,11.8L2.8,79.1V56.7z M2.8,87.2l9.7,11.8l-9.7,10.6V87.2z M2.8,117.9l9.7,11.8
			l-9.7,10.6V117.9z"/>
	</g>
</g>
<path class="st2" d="M160,132c-0.3,0-0.6,0.1-0.9,0.2c-0.1,0.1-6.4,3.3-15.3,5.1l1.5-7.7c5.6-0.6,10.7-1.8,14.7-3.2v-4.1
	c-0.2,0-0.4,0-0.6,0.1c-4.1,1.4-9.6,2.8-15.6,3.3c-0.2,0-0.5,0-0.7,0c-5.1,0.3-10.6,0-16-1.6c-0.1-0.1-0.3-0.1-0.4-0.1c0,0,0,0,0,0
	c-6-1.8-12-5.2-17.4-10.8c-10.6-11.1-15.6-23.4-20.4-35.3c-0.2-0.5-0.4-1-0.6-1.5c0-0.2-0.1-0.4-0.2-0.6c-2.3-5.7-4.6-11.2-7.6-16.2
	c-0.1-0.1-0.1-0.3-0.2-0.4c-4.2-6.9-9.6-12.7-17.9-16.5c-26.6-12.2-53.9-5.1-55-4.8c-3.4,0.8-6.1,1.6-7.2,2V44c0.2,0,0.4,0,0.6-0.1
	c0,0,3.1-1,7.6-2.1c0,0,0.2-0.1,0.6-0.1l-2.6,7.8c-3.1,0.5-5.2,0.9-6.2,1.2v4.1c0.2,0,0.3,0,0.5-0.1c0.3-0.1,27.1-7,52.4,4.5
	c13.8,6.3,18.8,18.7,24.5,33c2.7,6.7,5.6,13.9,9.7,21c0,0.1,0.1,0.1,0.1,0.2c2.7,4.7,6,9.4,10,13.8c0.1,0.1,0.1,0.1,0.2,0.2
	c0.4,0.5,0.8,0.9,1.3,1.4c3.4,3.6,7,6.3,10.8,8.3c0.2,0.1,0.4,0.2,0.6,0.3c4.1,2.2,8.2,3.5,12.3,4.3c0.1,0.1,0.3,0.1,0.4,0.2
	c0.1,0,0.3,0,0.4,0c0,0,0.1,0,0.1,0c2.9,0.5,5.8,0.7,8.6,0.7c3.1,0,6.2-0.3,9-0.7c0.1,0,0.2,0,0.2,0c0.3,0,0.6-0.1,0.8-0.2
	c8.8-1.5,15.6-4.4,18-5.5V132z M20.7,48.4c-3.8,0-7.2,0.2-10.1,0.5l2.7-8.1c2.5-0.4,5.8-0.8,9.6-1L20.7,48.4z M35.1,49.6
	c-3.6-0.6-7-0.9-10.3-1.1l2.2-8.8c3.2,0,6.6,0.1,10.2,0.5L35.1,49.6z M48.5,53.1c-3.2-1.1-6.4-2-9.5-2.7l2.2-9.7
	c3.2,0.5,6.5,1.2,9.9,2.2L48.5,53.1z M61.7,59.8c-2.1-1.6-4.5-3-7.2-4.3c-0.8-0.4-1.5-0.7-2.3-1l2.6-10.4c1.9,0.7,3.8,1.4,5.7,2.3
	c1.7,0.8,3.3,1.7,4.8,2.6L61.7,59.8z M65,62.5l3.7-11c3.1,2.6,5.5,5.7,7.7,9.1l-4,11.2C70.3,68.5,67.9,65.3,65,62.5z M75,76.5
	l4-11.2c1.8,3.6,3.5,7.5,5.1,11.6l-4,11.2C78.5,84.1,76.9,80.2,75,76.5z M82.4,93.7l4-11.2c1.5,3.7,3.1,7.5,5,11.4l-3.2,12.9
	C86,102.4,84.2,98,82.4,93.7z M97.8,121.6c-2.6-3.2-4.8-6.5-6.8-9.8l3.1-12.7c1.9,3.4,4.1,6.9,6.6,10.2L97.8,121.6z M109.3,132.3
	c-2.7-1.7-5.2-3.8-7.7-6.3c-0.2-0.2-0.4-0.4-0.6-0.6l3-12c0.8,0.9,1.6,1.8,2.4,2.6c1.7,1.8,3.4,3.3,5.2,4.7L109.3,132.3z
	 M121.7,137.4c-2.9-0.7-5.9-1.7-8.8-3.1l2.2-11.2c2.9,1.8,5.8,3.2,8.8,4.2L121.7,137.4z M139.5,138c-4.3,0.6-9,0.7-13.9,0.1l2.1-9.7
	c4,1,8,1.4,11.9,1.4c0.5,0,1,0,1.5,0L139.5,138z"/>
<path class="st3" d="M97.3,59.5c0,0,6.2,7.1,6.2,16.6s-6.8,20-6.8,20l-4.8-27.9L97.3,59.5z"/>
<rect x="51.2" y="49.5" transform="matrix(0.9693 0.2459 -0.2459 0.9693 14.1561 -11.9726)" class="st4" width="7.7" height="2.4"/>
<rect x="75" y="70.4" transform="matrix(-1.836970e-16 1 -1 -1.836970e-16 150.4291 -7.1959)" class="st4" width="7.7" height="2.4"/>
<circle class="st4" cx="30.1" cy="47.2" r="3.8"/>
<circle class="st4" cx="48.3" cy="51.2" r="3.8"/>
<circle class="st4" cx="59.6" cy="56.4" r="3.8"/>
<circle class="st4" cx="72.9" cy="69.6" r="3.8"/>
<circle class="st4" cx="78.6" cy="79.8" r="3.8"/>
<circle class="st4" cx="85.7" cy="97.5" r="3.8"/>
<rect x="25.6" y="34.6" transform="matrix(0.9815 0.1916 -0.1916 0.9815 8.7644 -7.005)" class="st5" width="30" height="14.3"/>
<path class="st5" d="M88.6,102L77.1,74.2l14.9-6.1c0,0,8.8,13.1,6.9,22.6C96.9,100.2,88.6,102,88.6,102z"/>
<polygon class="st3" points="27.2,31.9 30.1,26.3 60.3,31.9 56.7,37.7 "/>
<polygon class="st4" points="77.1,74.2 83.3,63.8 97.3,59.5 91.9,68.1 "/>
<path class="st5" d="M102.9,70.9l-4.4,11.9L96.7,96c0,0,3.5-5.7,5.7-12.7C104.6,76.2,102.9,70.9,102.9,70.9z"/>
<polygon class="st4" points="60.3,31.9 56.7,37.7 54,51.7 59,42.3 "/>
<polygon class="st4" points="30.1,26.3 29,32.2 27.2,31.9 "/>
<polygon class="st4" points="102.9,70.9 96.7,77.2 98.5,82.8 "/>
<rect x="56.7" y="48.9" transform="matrix(0.7388 0.6739 -0.6739 0.7388 56.9141 -33.5412)" class="st5" width="30" height="15.5"/>
<polygon class="st3" points="65.9,40.8 68.1,33.7 91.2,53.5 88,61 "/>
<polygon class="st4" points="68.1,33.7 59.6,43.4 55.4,52.3 65.9,40.8 "/>
<polygon class="st4" points="91.2,53.5 86.3,59.5 88,61 "/>
</svg>
