<?xml version="1.0" encoding="utf-8"?>
<!-- Generator: Adobe Illustrator 21.1.0, SVG Export Plug-In . SVG Version: 6.00 Build 0)  -->
<svg version="1.1" id="Layer_1" xmlns="http://www.w3.org/2000/svg" xmlns:xlink="http://www.w3.org/1999/xlink" x="0px" y="0px"
	 viewBox="0 0 160 160" style="enable-background:new 0 0 160 160;" xml:space="preserve">
<style type="text/css">
	.st0{fill:#37F4A6;}
	.st1{fill:#30E291;}
	.st2{fill:#FFFFFF;}
	.st3{fill:#E6E6E6;}
	.st4{fill:#FFED48;}
	.st5{fill:#D792F4;}
	.st6{fill:#BF80E0;}
	.st7{fill:#45C5FF;}
	.st8{fill:#46F29C;}
	.st9{fill:#EBEBEC;}
	.st10{fill:#F2F2F2;}
	.st11{fill:#666666;}
	.st12{fill:#31DB8E;}
	.st13{fill:#BE79E2;}
	.st14{fill:#EFD941;}
	.st15{fill:#BE7CE0;}
	.st16{fill:#BD80DD;}
	.st17{fill:#B375D3;}
	.st18{fill:#32BAEA;}
	.st19{fill:#66FFB9;}
</style>
<g>
	<rect class="st4" width="160" height="160"/>
</g>
<g>
	<ellipse class="st14" cx="80.4" cy="129.1" rx="57.2" ry="12.4"/>
</g>
<g>
	<path class="st5" d="M52.9,45.6C80.8,22,109.7,24,114.9,23.8s8.8,0.6,11.3,2.6c2.6,2,4.4,4,5.2,14.5c0.8,10.5-4.4,44.6-21.3,62.7
		s-33,23.1-41.8,26.3c-8.8,3.2-25.3,4.8-32.6,4s-10.7-2.6-11.7-5.2c-1-2.6-2.4-11.3-1.2-22.9C23.9,94.3,26.8,67.7,52.9,45.6z"/>
</g>
<path class="st16" d="M69.5,68.4c-27.6,28.4-43.5,58.9-44.9,61.5c1.5,1.9,4.9,3.3,11.1,4c7.4,0.8,23.9-0.8,32.6-4
	c8.8-3.2,24.9-8.2,41.8-26.3s22.1-52.1,21.3-62.7c-0.8-10.5-2.6-12.5-5.2-14.5C126.2,26.4,98.3,38.8,69.5,68.4z"/>
<path class="st2" d="M99.6,48.8L92.9,42c-0.8-0.8-2-0.8-2.8,0c-0.8,0.8-0.8,2,0,2.8l1.5,1.5c-1,0.8-2.4,2-4,3.4L86,48.1
	c-0.8-0.8-2-0.8-2.8,0s-0.8,2,0,2.8l1.4,1.4c-1.3,1.1-2.6,2.3-4,3.5L79,54.2c-0.8-0.8-2.1-0.8-2.8,0s-0.8,2.1,0,2.8l1.4,1.4
	c-1.4,1.3-2.8,2.6-4.2,3.9l-1.5-1.5c-0.8-0.8-2.1-0.8-2.8,0c-0.8,0.8-0.8,2.1,0,2.8l1.4,1.4c-1.3,1.2-2.5,2.4-3.5,3.6
	c-0.1,0.1-0.2,0.2-0.3,0.3l-1.5-1.5c-0.8-0.8-2.1-0.8-2.8,0c-0.8,0.8-0.8,2.1,0,2.8l1.6,1.6c-1.3,1.4-2.7,3-4,4.5l-1.8-1.7
	c-0.8-0.8-2.1-0.7-2.8,0.1c-0.8,0.8-0.7,2.1,0.1,2.8l1.9,1.9c-1.3,1.5-2.5,2.9-3.7,4.3l-1.7-1.7c-0.8-0.8-2-0.8-2.8,0
	c-0.8,0.8-0.8,2,0,2.8l1.9,1.9c-1.4,1.7-2.6,3.2-3.5,4.2l-1.4-1.4c-0.8-0.8-2-0.8-2.8,0c-0.8,0.8-0.8,2,0,2.8l2.4,2.5
	c0.1,0.3,0.3,0.6,0.6,0.8c0.2,0.1,0.3,0.2,0.5,0.3l2.8,2.9c0.4,0.4,0.9,0.6,1.4,0.6c0.5,0,1-0.2,1.4-0.6c0.8-0.8,0.8-2,0-2.8
	L50.3,94c0.8-1,2.1-2.5,3.5-4.3l2.1,2.1c0.4,0.4,0.9,0.6,1.4,0.6s1-0.2,1.4-0.6c0.8-0.8,0.8-2,0-2.8l-2.4-2.4
	c1.2-1.4,2.4-2.9,3.7-4.4l2,1.9c0.4,0.4,0.9,0.6,1.4,0.6c0.5,0,1-0.2,1.4-0.6c0.8-0.8,0.7-2.1-0.1-2.8l-2.2-2.1c1.3-1.5,2.7-3,4-4.4
	l2.1,2.1c0.4,0.4,0.9,0.6,1.4,0.6c0.5,0,1-0.2,1.4-0.6c0.8-0.8,0.8-2.1,0-2.8l-2.2-2.2c0.1-0.1,0.3-0.3,0.4-0.4
	c1.1-1.1,2.2-2.3,3.5-3.5l2.3,2.3c0.4,0.4,0.9,0.6,1.4,0.6c0.5,0,1-0.2,1.4-0.6c0.8-0.8,0.8-2.1,0-2.8l-2.2-2.2
	c1.4-1.3,2.8-2.6,4.2-3.9l2.3,2.3c0.4,0.4,0.9,0.6,1.4,0.6c0.5,0,1-0.2,1.4-0.6c0.8-0.8,0.8-2.1,0-2.8l-2.1-2.1
	c1.4-1.2,2.7-2.4,3.9-3.4l2.5,2.5c0.4,0.4,0.9,0.6,1.4,0.6s1-0.2,1.4-0.6c0.8-0.8,0.8-2,0-2.8l-2.2-2.2c1.7-1.4,3.1-2.6,4-3.4
	l2.4,2.4c0.4,0.4,0.9,0.6,1.4,0.6c0.5,0,1-0.2,1.4-0.6C100.4,50.8,100.4,49.6,99.6,48.8z"/>
<g>
	<path class="st2" d="M26.8,84.4c-1.5,4.8-2.4,9.2-3,13l0,0c0,0,5.1,6,16.1,16.8c10.9,10.7,19.6,18,19.6,18c3.3-0.6,6.4-1.4,8.9-2.3
		c1.2-0.4,2.6-0.9,4-1.5h0c0,0-14-12.9-26.7-24.4C32.9,92.5,26.8,84.4,26.8,84.4z"/>
</g>
<g>
	<path class="st2" d="M105.5,46.5C119,59.3,127,70.7,127,70.7c1.3-4.4,2.2-8.7,2.9-12.7c0,0-6.5-9.1-18.1-20.1
		C100.3,27,94.4,25.6,94.4,25.6c-3.5,0.7-7.4,1.6-11.4,3C83,28.6,92,33.8,105.5,46.5z"/>
</g>
</svg>
