<?xml version="1.0" encoding="utf-8"?>
<!-- Generator: Adobe Illustrator 21.1.0, SVG Export Plug-In . SVG Version: 6.00 Build 0)  -->
<svg version="1.1" id="Layer_1" xmlns="http://www.w3.org/2000/svg" xmlns:xlink="http://www.w3.org/1999/xlink" x="0px" y="0px"
	 viewBox="0 0 160 160" style="enable-background:new 0 0 160 160;" xml:space="preserve">
<style type="text/css">
	.st0{fill:#37F4A6;}
	.st1{fill:#30E291;}
	.st2{fill:#FFFFFF;}
	.st3{fill:#E6E6E6;}
	.st4{fill:#FFED48;}
	.st5{fill:#D792F4;}
	.st6{fill:#BF80E0;}
	.st7{fill:#45C5FF;}
	.st8{fill:#46F29C;}
	.st9{fill:#EBEBEC;}
	.st10{fill:#F2F2F2;}
	.st11{fill:#666666;}
	.st12{fill:#31DB8E;}
	.st13{fill:#BE79E2;}
	.st14{fill:#EFD941;}
	.st15{fill:#BE7CE0;}
	.st16{fill:#BD80DD;}
	.st17{fill:#B375D3;}
	.st18{fill:#32BAEA;}
	.st19{fill:#66FFB9;}
</style>
<g>
	<rect class="st5" width="160" height="160"/>
</g>
<polygon class="st8" points="52.4,67.8 59.4,67.8 46.4,44.5 53.4,44.5 39.4,24.6 25.4,44.5 32.4,44.5 19.4,67.8 26.4,67.8 
	10.5,99.8 39.4,99.8 68.4,99.8 "/>
<rect x="35.9" y="99.8" class="st1" width="7" height="60.2"/>
<polygon class="st1" points="75.7,91.9 80.9,91.9 71.3,74.7 76.4,74.7 66.1,60 55.8,74.7 60.9,74.7 51.3,91.9 56.5,91.9 44.7,115.6 
	66.1,115.6 87.5,115.6 "/>
<rect x="63.5" y="115.6" class="st8" width="5.2" height="44.4"/>
<rect x="4.6" y="109.6" class="st8" width="5.9" height="50.4"/>
<polygon class="st8" points="109.3,78.1 115.5,78.1 104,57.3 110.2,57.3 97.8,39.7 85.3,57.3 91.5,57.3 80,78.1 86.2,78.1 
	72.1,106.5 97.8,106.5 123.5,106.5 "/>
<rect x="94.7" y="106.5" class="st1" width="6.2" height="53.5"/>
<rect x="132.8" y="97.6" class="st8" width="7.3" height="62.4"/>
<path class="st1" d="M0,160c0,0,28-16.7,80-16.7s80,16.7,80,16.7H0z"/>
<polygon class="st1" points="24.3,82.9 13.4,63.3 19.3,63.3 7.6,46.7 0,57.4 0,63.3 1.7,63.3 0,66.4 0,109.6 7.6,109.6 31.8,109.6 
	18.4,82.9 "/>
<polygon class="st1" points="160,84.7 149.9,64.5 157.2,64.5 143.7,40.3 150.9,40.3 136.4,19.7 121.9,40.3 129.2,40.3 115.7,64.5 
	123,64.5 106.4,97.6 136.4,97.6 160,97.6 "/>
</svg>
