<?xml version="1.0" encoding="utf-8"?>
<!-- Generator: Adobe Illustrator 21.1.0, SVG Export Plug-In . SVG Version: 6.00 Build 0)  -->
<svg version="1.1" id="Layer_1" xmlns="http://www.w3.org/2000/svg" xmlns:xlink="http://www.w3.org/1999/xlink" x="0px" y="0px"
	 viewBox="0 0 160 160" style="enable-background:new 0 0 160 160;" xml:space="preserve">
<style type="text/css">
	.st0{fill:#37F4A6;}
	.st1{fill:#30E291;}
	.st2{fill:#FFFFFF;}
	.st3{fill:#E6E6E6;}
	.st4{fill:#FFED48;}
	.st5{fill:#D792F4;}
	.st6{fill:#BF80E0;}
	.st7{fill:#45C5FF;}
	.st8{fill:#46F29C;}
	.st9{fill:#EBEBEC;}
	.st10{fill:#F2F2F2;}
	.st11{fill:#666666;}
	.st12{fill:#31DB8E;}
	.st13{fill:#BE79E2;}
	.st14{fill:#EFD941;}
	.st15{fill:#BE7CE0;}
	.st16{fill:#BD80DD;}
	.st17{fill:#B375D3;}
	.st18{fill:#32BAEA;}
	.st19{fill:#66FFB9;}
</style>
<g>
	<rect x="0.2" class="st4" width="160" height="160"/>
</g>
<path class="st0" d="M106.6,145.6H45.3v-4.2c0,0,7.4-3.3,30.7-3.3s30.7,3.3,30.7,3.3V145.6z"/>
<rect x="73" y="123.5" class="st0" width="6" height="19.3"/>
<g>
	<path class="st0" d="M29.5,104.8c-0.7,0-1.4-0.3-1.9-0.9c-0.9-1-0.8-2.6,0.2-3.5l89.9-78.6c1-0.9,2.6-0.8,3.5,0.2s0.8,2.6-0.2,3.5
		l-89.9,78.6C30.6,104.6,30.1,104.8,29.5,104.8z"/>
</g>
<g>
	<circle class="st7" cx="75.1" cy="63.9" r="42.7"/>
</g>
<g>
	<path class="st0" d="M75.1,128.1c-21.4,0-41.3-10.6-53.2-28.3c-1.4-2.1-0.8-4.9,1.2-6.2c2.1-1.4,4.9-0.9,6.2,1.2
		c10.3,15.2,27.4,24.3,45.8,24.3c30.4,0,55.2-24.8,55.2-55.2c0-18.4-9.1-35.5-24.3-45.8c-2.1-1.4-2.6-4.2-1.2-6.2
		c1.4-2.1,4.2-2.6,6.2-1.2c17.7,12,28.3,31.9,28.3,53.2C139.3,99.3,110.5,128.1,75.1,128.1z"/>
</g>
<path class="st0" d="M59.2,28.1l-4.5,10.2l2.2,4.8l-3.8,5.3l1,7.2l-1,3.7l-7.8-2.8L39.5,61L35,69l-1.4,4.5c0,0,0.5,2.2,1.1,4
	c0.6,1.9,1.6,4.1,1.6,4.1l10-5.8l12.8,1.3l2.8-7.3L56.8,61v-7.8l9.2-5.5l3.2,3.2l1,2.8l5-6.2l5.1-6.7l8.9-2.2l-7-9.5L73,29.5
	L69.8,25l-5.6-2.4c0,0-2.2,0.6-4.2,1.3c-2,0.7-4.1,1.8-4.1,1.8L59.2,28.1z"/>
<path class="st0" d="M96.3,78.1L86,72.8l-9.2,5.3L77.5,91l7.2,7.8l-5.8,7.7c0,0,5.6-0.8,9.7-2.1c4.1-1.3,7.8-3.5,7.8-3.5
	s2.3-1.3,4.6-3.1c2.3-1.7,4.1-3.5,4.1-3.5L103.8,84l2.3,2.8l1.5,4.7c0,0,1.7-2.1,3-4c1.3-1.9,2.6-4.4,2.6-4.4s1.9-3.8,3.2-8.3
	c1.2-4.5,1.4-9.1,1.4-9.1s0.3-3.5-0.5-8.4c-0.8-4.9-2-7.9-2-7.9l-6.1-2.5h-9.8L94,54.6l4.8,4.3l5.7-1.3l-1.2,6.2L96.2,63l-7.8-3.4
	L84.2,63l3.3,4.9L99,69l1,6.2L96.3,78.1z"/>
</svg>
