<?xml version="1.0" encoding="utf-8"?>
<!-- Generator: Adobe Illustrator 21.1.0, SVG Export Plug-In . SVG Version: 6.00 Build 0)  -->
<svg version="1.1" id="Layer_1" xmlns="http://www.w3.org/2000/svg" xmlns:xlink="http://www.w3.org/1999/xlink" x="0px" y="0px"
	 viewBox="0 0 160 160" style="enable-background:new 0 0 160 160;" xml:space="preserve">
<style type="text/css">
	.st0{fill:#37F4A6;}
	.st1{fill:#30E291;}
	.st2{fill:#FFFFFF;}
	.st3{fill:#E6E6E6;}
	.st4{fill:#FFED48;}
	.st5{fill:#D792F4;}
	.st6{fill:#BF80E0;}
	.st7{fill:#45C5FF;}
	.st8{fill:#46F29C;}
	.st9{fill:#EBEBEC;}
	.st10{fill:#F2F2F2;}
	.st11{fill:#666666;}
	.st12{fill:#31DB8E;}
	.st13{fill:#BE79E2;}
	.st14{fill:#EFD941;}
	.st15{fill:#BE7CE0;}
	.st16{fill:#BD80DD;}
	.st17{fill:#B375D3;}
	.st18{fill:#32BAEA;}
	.st19{fill:#66FFB9;}
</style>
<g>
	<rect class="st7" width="160" height="160"/>
</g>
<path class="st0" d="M0,124c0,0,29-12,81-12s79,13.7,79,13.7V160H0V124z"/>
<circle class="st2" cx="107" cy="116" r="8"/>
<path class="st10" d="M115,116c0,4.4-3.6,8-8,8c-1.7,0-3.2-0.5-4.5-1.4c-1.1-0.7,3.7-1.7,6.5-4.6c2.8-2.9,3.7-7.8,4.4-6.8
	C114.4,112.6,115,114.2,115,116z"/>
<ellipse class="st11" cx="69" cy="123" rx="13" ry="4"/>
<polygon class="st4" points="61,54 61,30 95,41 "/>
<path class="st4" d="M61,126.1c0.9,0.3,1.9,0.5,3,0.7V32h-3V126.1z"/>
</svg>
