<?xml version="1.0" encoding="utf-8"?>
<!-- Generator: Adobe Illustrator 21.1.0, SVG Export Plug-In . SVG Version: 6.00 Build 0)  -->
<svg version="1.1" id="Layer_1" xmlns="http://www.w3.org/2000/svg" xmlns:xlink="http://www.w3.org/1999/xlink" x="0px" y="0px"
	 viewBox="0 0 160 160" style="enable-background:new 0 0 160 160;" xml:space="preserve">
<style type="text/css">
	.st0{fill:#37F4A6;}
	.st1{fill:#30E291;}
	.st2{fill:#FFFFFF;}
	.st3{fill:#E6E6E6;}
	.st4{fill:#FFED48;}
	.st5{fill:#D792F4;}
	.st6{fill:#BF80E0;}
	.st7{fill:#45C5FF;}
	.st8{fill:#46F29C;}
	.st9{fill:#EBEBEC;}
	.st10{fill:#F2F2F2;}
	.st11{fill:#666666;}
	.st12{fill:#31DB8E;}
	.st13{fill:#BE79E2;}
	.st14{fill:#EFD941;}
	.st15{fill:#BE7CE0;}
	.st16{fill:#BD80DD;}
	.st17{fill:#B375D3;}
	.st18{fill:#32BAEA;}
	.st19{fill:#66FFB9;}
</style>
<rect class="st0" width="160" height="160"/>
<g>
	<path class="st5" d="M80,130.8l-7-6.3c-8-7.2-13.8-12.6-17.4-16.1c-3.6-3.5-7.7-7.8-12.1-12.9c-4.5-5.1-7.5-9.8-9.2-13.9
		c-1.7-4.1-2.5-8.4-2.5-12.8c0-7.4,2.5-13.7,7.6-18.8c5.1-5.1,11.4-7.7,18.9-7.7c8.7,0,16,3.4,21.7,10.2c5.7-6.8,13-10.2,21.7-10.2
		c7.5,0,13.8,2.6,18.9,7.7c5.1,5.1,7.6,11.4,7.6,18.8c0,5.9-2,12-5.9,18.3c-3.9,6.3-8.2,11.8-12.8,16.5c-4.6,4.7-12.1,11.7-22.5,21
		L80,130.8z"/>
</g>
<path class="st15" d="M80,130.8V52.5c5.7-6.8,13-10.2,21.7-10.2c7.5,0,13.8,2.6,18.9,7.7c5.1,5.1,7.6,11.4,7.6,18.8
	c0,5.9-2,12-5.9,18.3c-3.9,6.3-8.2,11.8-12.8,16.5c-4.6,4.7-12.1,11.7-22.5,21L80,130.8z"/>
</svg>
