<?xml version="1.0" encoding="utf-8"?>
<!-- Generator: Adobe Illustrator 21.1.0, SVG Export Plug-In . SVG Version: 6.00 Build 0)  -->
<svg version="1.1" id="Layer_1" xmlns="http://www.w3.org/2000/svg" xmlns:xlink="http://www.w3.org/1999/xlink" x="0px" y="0px"
	 viewBox="0 0 160 160" style="enable-background:new 0 0 160 160;" xml:space="preserve">
<style type="text/css">
	.st0{fill:#37F4A6;}
	.st1{fill:#30E291;}
	.st2{fill:#FFFFFF;}
	.st3{fill:#E6E6E6;}
	.st4{fill:#FFED48;}
	.st5{fill:#D792F4;}
	.st6{fill:#BF80E0;}
	.st7{fill:#45C5FF;}
	.st8{fill:#46F29C;}
	.st9{fill:#EBEBEC;}
	.st10{fill:#F2F2F2;}
	.st11{fill:#666666;}
	.st12{fill:#31DB8E;}
	.st13{fill:#BE79E2;}
	.st14{fill:#EFD941;}
	.st15{fill:#BE7CE0;}
	.st16{fill:#BD80DD;}
	.st17{fill:#B375D3;}
	.st18{fill:#32BAEA;}
	.st19{fill:#66FFB9;}
</style>
<g>
	<rect class="st7" width="160" height="160"/>
</g>
<g>
	<rect x="21.4" y="97.8" class="st4" width="115.8" height="62.2"/>
</g>
<g>
	<polygon class="st4" points="7.9,97.8 79.3,43.3 150.7,97.8 	"/>
</g>
<g>
	<rect x="42.2" y="110.9" class="st5" width="31.1" height="49.1"/>
</g>
<g>
	<rect x="93.2" y="118.5" class="st5" width="24" height="24"/>
</g>
<g>
	<polygon class="st14" points="137.2,101.9 21.4,97.8 137.2,97.8 	"/>
</g>
<g>
	<rect x="26.7" y="54.5" class="st4" width="20.2" height="32"/>
</g>
<path class="st2" d="M35.4,48.9c0,0,2.3-7,1.8-13.6c-0.5-6.7-9-11.3-9-18s6.4-11.7,6.4-11.7s-1.5,8-0.4,11.9
	c1.1,3.9,9.4,7.5,7.8,16.6S35.4,48.9,35.4,48.9z"/>
<polygon class="st17" points="117.2,130 105.7,130 105.7,118.5 104.7,118.5 104.7,130 93.2,130 93.2,131 104.7,131 104.7,142.5 
	105.7,142.5 105.7,131 117.2,131 "/>
<g>
	<polygon class="st17" points="46.5,129.3 45.5,129.3 45.5,114.7 55.3,114.7 55.3,115.7 46.5,115.7 	"/>
</g>
<g>
	<polygon class="st17" points="60.5,129.3 59.5,129.3 59.5,114.7 69.3,114.7 69.3,115.7 60.5,115.7 	"/>
</g>
<g>
	<polygon class="st17" points="46.5,156.3 45.5,156.3 45.5,133.2 55.3,133.2 55.3,134.2 46.5,134.2 	"/>
</g>
<g>
	<polygon class="st17" points="60.5,156.3 59.5,156.3 59.5,133.2 69.3,133.2 69.3,134.2 60.5,134.2 	"/>
</g>
</svg>
