<?xml version="1.0" encoding="utf-8"?>
<!-- Generator: Adobe Illustrator 21.1.0, SVG Export Plug-In . SVG Version: 6.00 Build 0)  -->
<svg version="1.1" id="Layer_1" xmlns="http://www.w3.org/2000/svg" xmlns:xlink="http://www.w3.org/1999/xlink" x="0px" y="0px"
	 viewBox="0 0 160 160" style="enable-background:new 0 0 160 160;" xml:space="preserve">
<style type="text/css">
	.st0{fill:#37F4A6;}
	.st1{fill:#30E291;}
	.st2{fill:#FFFFFF;}
	.st3{fill:#E6E6E6;}
	.st4{fill:#FFED48;}
	.st5{fill:#D792F4;}
	.st6{fill:#BF80E0;}
	.st7{fill:#45C5FF;}
	.st8{fill:#46F29C;}
	.st9{fill:#EBEBEC;}
	.st10{fill:#F2F2F2;}
	.st11{fill:#666666;}
	.st12{fill:#31DB8E;}
	.st13{fill:#BE79E2;}
	.st14{fill:#EFD941;}
	.st15{fill:#BE7CE0;}
	.st16{fill:#BD80DD;}
	.st17{fill:#B375D3;}
	.st18{fill:#32BAEA;}
	.st19{fill:#66FFB9;}
</style>
<g>
	<rect class="st5" width="160" height="160"/>
</g>
<path class="st0" d="M62.4,138.3H50.3c0,0,1.4-9.5,2-26.6s0.1-46.4,0.1-46.4h7.3c0,0,0.7,23,0.7,38.6S62.4,138.3,62.4,138.3z"/>
<path class="st0" d="M82.9,42.9C82.4,28.5,70.6,16.9,56,16.9c-14.9,0-26.9,12-26.9,26.9c0,2.4,0.3,4.7,0.9,7
	c-7.7,3.3-13.1,11-13.1,20c0,12,9.7,21.7,21.7,21.7c6.1,0,11.6-2.5,15.6-6.6c4.9,5.3,11.9,8.7,19.6,8.7c14.7,0,26.6-11.9,26.6-26.6
	C100.5,56.4,93.2,46.6,82.9,42.9z"/>
<path class="st1" d="M82.9,42.9c-0.2-6.8-3-13-7.4-17.6c-1.4-1.5,4.9,9-1.6,16C72.2,43.1,82.1,43,88,53.1
	c5.8,10.2-1.5,22.8-11.8,27.7s-24.6-1-28.9,2.3c-12,9.5-23,4.1-20.7,5.6c3.5,2.3,7.7,3.7,12.2,3.7c6.1,0,11.6-2.5,15.6-6.6
	c4.9,5.3,11.9,8.7,19.6,8.7c14.7,0,26.6-11.9,26.6-26.6C100.5,56.4,93.2,46.6,82.9,42.9z"/>
<path class="st1" d="M0,137c0,0,29-12,81-12s79,13.7,79,13.7V160H0V137z"/>
</svg>
