<?xml version="1.0" encoding="utf-8"?>
<!-- Generator: Adobe Illustrator 21.1.0, SVG Export Plug-In . SVG Version: 6.00 Build 0)  -->
<svg version="1.1" id="Layer_1" xmlns="http://www.w3.org/2000/svg" xmlns:xlink="http://www.w3.org/1999/xlink" x="0px" y="0px"
	 viewBox="0 0 160 160" style="enable-background:new 0 0 160 160;" xml:space="preserve">
<style type="text/css">
	.st0{fill:#37F4A6;}
	.st1{fill:#30E291;}
	.st2{fill:#FFFFFF;}
	.st3{fill:#E6E6E6;}
	.st4{fill:#FFED48;}
	.st5{fill:#D792F4;}
	.st6{fill:#BF80E0;}
	.st7{fill:#45C5FF;}
	.st8{fill:#46F29C;}
	.st9{fill:#EBEBEC;}
	.st10{fill:#F2F2F2;}
	.st11{fill:#666666;}
	.st12{fill:#31DB8E;}
	.st13{fill:#BE79E2;}
	.st14{fill:#EFD941;}
	.st15{fill:#BE7CE0;}
	.st16{fill:#BD80DD;}
	.st17{fill:#B375D3;}
	.st18{fill:#32BAEA;}
	.st19{fill:#66FFB9;}
</style>
<g>
	<rect class="st7" width="160" height="160"/>
</g>
<g>
	<path class="st4" d="M41.2,38.6C51.9,27.8,64.9,22.5,80,22.5c15.1,0,28.1,5.4,38.8,16.1c10.7,10.7,16.1,23.7,16.1,38.8
		c0,15.1-5.4,28.1-16.1,38.8c-10.7,10.7-23.7,16.1-38.8,16.1c-15.1,0-28.1-5.4-38.8-16.1c-10.7-10.7-16.1-23.7-16.1-38.8
		C25.1,62.3,30.5,49.3,41.2,38.6z M48.9,108.4c8.7,8.7,19,13,31.1,13c12,0,22.4-4.3,31.1-13c8.7-8.7,13-19,13-31.1
		c0-3.8-0.6-7.9-1.8-12.4c-3.3,0.9-7.4,1.3-12.4,1.3C91,66.3,76,58.6,65,43.1c-5.7,13.8-15.3,23.6-28.9,29.6c-0.2,1-0.3,2.6-0.3,4.6
		C35.9,89.4,40.3,99.8,48.9,108.4z M58.6,78c1.4-1.3,3-1.9,4.9-1.9c1.9,0,3.5,0.6,4.9,1.9c1.4,1.3,2.1,2.9,2.1,4.8
		c0,1.9-0.7,3.5-2.1,4.9c-1.4,1.4-3,2.1-4.9,2.1c-1.9,0-3.5-0.7-4.9-2.1c-1.4-1.4-2.1-3-2.1-4.9C56.5,80.9,57.2,79.3,58.6,78z
		 M91.6,78c1.4-1.3,3-1.9,4.9-1.9c1.9,0,3.5,0.6,4.9,1.9c1.4,1.3,2.1,2.9,2.1,4.8c0,1.9-0.7,3.5-2.1,4.9c-1.4,1.4-3,2.1-4.9,2.1
		c-1.9,0-3.5-0.7-4.9-2.1c-1.4-1.4-2.1-3-2.1-4.9C89.5,80.9,90.2,79.3,91.6,78z"/>
</g>
</svg>
