<?xml version="1.0" encoding="utf-8"?>
<!-- Generator: Adobe Illustrator 21.1.0, SVG Export Plug-In . SVG Version: 6.00 Build 0)  -->
<svg version="1.1" id="Layer_1" xmlns="http://www.w3.org/2000/svg" xmlns:xlink="http://www.w3.org/1999/xlink" x="0px" y="0px"
	 viewBox="0 0 160 160" style="enable-background:new 0 0 160 160;" xml:space="preserve">
<style type="text/css">
	.st0{fill:#37F4A6;}
	.st1{fill:#30E291;}
	.st2{fill:#FFFFFF;}
	.st3{fill:#E6E6E6;}
	.st4{fill:#FFED48;}
	.st5{fill:#D792F4;}
	.st6{fill:#BF80E0;}
	.st7{fill:#45C5FF;}
	.st8{fill:#46F29C;}
	.st9{fill:#EBEBEC;}
	.st10{fill:#F2F2F2;}
	.st11{fill:#666666;}
	.st12{fill:#31DB8E;}
	.st13{fill:#BE79E2;}
	.st14{fill:#EFD941;}
	.st15{fill:#BE7CE0;}
	.st16{fill:#BD80DD;}
	.st17{fill:#B375D3;}
	.st18{fill:#32BAEA;}
	.st19{fill:#66FFB9;}
</style>
<g>
	<rect class="st7" width="160" height="160"/>
</g>
<g>
	<path class="st4" d="M113.9,147.6l-29-55l-28.7,28.7l2.7,18.4l-7.9,7.9l-13.3-23.6l-23.3-13l7.9-7.9l18.2,2.5l28.7-28.7L14.4,48.1
		l10.3-10.3l68.1,15.5l28.7-28.7c2.1-2.1,4.7-3.2,7.9-3.2c3.1,0,5.7,1.1,7.9,3.2c2.1,2.1,3.2,4.7,3.2,7.9c0,3.1-1.1,5.7-3.2,7.9
		L108.5,69l15.7,68.3L113.9,147.6z"/>
</g>
<g>
	<g>
		<path class="st14" d="M113.9,147.6l-29-55l-28.7,28.7l2.7,18.4l-7.9,7.9l-13.3-23.6l99.5-99.5c2.1,2.1,3.2,4.7,3.2,7.9
			c0,3.1-1.1,5.7-3.2,7.9L108.5,69l15.7,68.3L113.9,147.6z"/>
	</g>
</g>
<g>
	<path class="st2" d="M136.5,33.1c0-4.3-3.5-7.8-7.8-7.8c-2.1,0-4.1,0.9-5.5,2.3l0,0l-2,2l11,11l1.8-1.8
		C135.5,37.3,136.5,35.3,136.5,33.1z"/>
</g>
<g>
	<path class="st10" d="M136.5,33.1c0-2.1-0.9-4.1-2.3-5.5l-7.5,7.5l5.5,5.5l1.8-1.8C135.5,37.3,136.5,35.3,136.5,33.1z"/>
</g>
<g>
	<polygon class="st5" points="19.2,47.9 21.3,45.8 52.1,60.9 49.5,63.1 	"/>
</g>
<g>
	<polygon class="st5" points="18.2,110.6 20.3,108.5 38.5,117.4 36.4,119.8 	"/>
</g>
<polygon class="st15" points="113.9,142 116,139.9 100.4,109.4 98.3,112 "/>
<polygon class="st15" points="51.3,144.1 53.4,141.9 44,123.8 41.8,126.1 "/>
<rect x="37.9" y="108.2" transform="matrix(0.7071 0.7071 -0.7071 0.7071 98.1882 8.1793)" class="st5" width="2.6" height="28.8"/>
</svg>
