<?xml version="1.0" encoding="utf-8"?>
<!-- Generator: Adobe Illustrator 21.1.0, SVG Export Plug-In . SVG Version: 6.00 Build 0)  -->
<svg version="1.1" id="Layer_1" xmlns="http://www.w3.org/2000/svg" xmlns:xlink="http://www.w3.org/1999/xlink" x="0px" y="0px"
	 viewBox="0 0 160 160" style="enable-background:new 0 0 160 160;" xml:space="preserve">
<style type="text/css">
	.st0{fill:#37F4A6;}
	.st1{fill:#30E291;}
	.st2{fill:#FFFFFF;}
	.st3{fill:#E6E6E6;}
	.st4{fill:#FFED48;}
	.st5{fill:#D792F4;}
	.st6{fill:#BF80E0;}
	.st7{fill:#45C5FF;}
	.st8{fill:#46F29C;}
	.st9{fill:#EBEBEC;}
	.st10{fill:#F2F2F2;}
	.st11{fill:#666666;}
	.st12{fill:#31DB8E;}
	.st13{fill:#BE79E2;}
	.st14{fill:#EFD941;}
	.st15{fill:#BE7CE0;}
	.st16{fill:#BD80DD;}
	.st17{fill:#B375D3;}
	.st18{fill:#32BAEA;}
	.st19{fill:#66FFB9;}
</style>
<g>
	<rect class="st4" width="160" height="160"/>
</g>
<circle class="st2" cx="80" cy="82.9" r="48"/>
<g>
	<path class="st10" d="M53.4,111.6c-0.5,0-1-0.2-1.4-0.6c-7.5-7.5-11.6-17.5-11.6-28c0-21.9,17.8-39.7,39.7-39.7
		c10.3,0,20.1,3.9,27.5,11.1c0.8,0.8,0.8,2,0.1,2.8c-0.8,0.8-2,0.8-2.8,0.1c-6.7-6.4-15.5-10-24.7-10c-19.7,0-35.7,16-35.7,35.7
		c0,9.5,3.7,18.5,10.4,25.2c0.8,0.8,0.8,2,0,2.8C54.4,111.4,53.9,111.6,53.4,111.6z"/>
</g>
<path class="st2" d="M16,63.8l-0.9,60.8c0,2.1,1.6,3.7,3.7,3.7h0c2.1,0,3.7-1.7,3.7-3.7l-0.9-60.8c0,0,4.8-3,4.8-11.2l-0.9-17.9
	c0-0.3-0.4-0.4-0.5-0.1l-2.7,17.5c-0.2,0.8-1.3,0.7-1.4,0l-1.7-17.4c0-0.3-0.5-0.3-0.5,0l-2,17.4c-0.1,0.8-1.3,0.8-1.4,0l-2.4-17.1
	c-0.1-0.3-0.5-0.3-0.5,0.1L11,53C11,61.9,16,63.8,16,63.8z"/>
<path class="st2" d="M138.2,63.8l-0.9,60.8c0,2.1,1.6,3.7,3.7,3.7h0c2.1,0,3.7-1.7,3.7-3.7l-0.9-60.8c0,0,6.5-4.2,6.5-13
	s-5-17.2-9-17.2s-9.7,8.3-9.7,17.2S138.2,63.8,138.2,63.8z"/>
</svg>
