<?xml version="1.0" encoding="utf-8"?>
<!-- Generator: Adobe Illustrator 21.1.0, SVG Export Plug-In . SVG Version: 6.00 Build 0)  -->
<svg version="1.1" id="Layer_1" xmlns="http://www.w3.org/2000/svg" xmlns:xlink="http://www.w3.org/1999/xlink" x="0px" y="0px"
	 viewBox="0 0 160 160" style="enable-background:new 0 0 160 160;" xml:space="preserve">
<style type="text/css">
	.st0{fill:#37F4A6;}
	.st1{fill:#30E291;}
	.st2{fill:#FFFFFF;}
	.st3{fill:#E6E6E6;}
	.st4{fill:#FFED48;}
	.st5{fill:#D792F4;}
	.st6{fill:#BF80E0;}
	.st7{fill:#45C5FF;}
	.st8{fill:#46F29C;}
	.st9{fill:#EBEBEC;}
	.st10{fill:#F2F2F2;}
	.st11{fill:#666666;}
	.st12{fill:#31DB8E;}
	.st13{fill:#BE79E2;}
	.st14{fill:#EFD941;}
	.st15{fill:#BE7CE0;}
	.st16{fill:#BD80DD;}
	.st17{fill:#B375D3;}
	.st18{fill:#32BAEA;}
	.st19{fill:#66FFB9;}
</style>
<rect x="0.1" class="st2" width="160" height="160"/>
<g>
	<path class="st5" d="M151.3,130.3h-16.5c0-30.3-24.6-54.9-54.9-54.9s-54.9,24.6-54.9,54.9H8.7C8.7,91,40.7,59,80,59
		C119.3,59,151.3,91,151.3,130.3z"/>
</g>
<g>
	<path class="st0" d="M130.6,130.3h-15.8c0-19.2-15.6-34.8-34.8-34.8s-34.8,15.6-34.8,34.8H29.4c0-27.9,22.7-50.6,50.6-50.6
		S130.6,102.5,130.6,130.3z"/>
</g>
<path class="st4" d="M105.3,114.8L105.3,114.8c-4.6-7.6-12.7-13-22-14c-0.2,0-0.3,0-0.5-0.1c-0.3,0-0.7-0.1-1-0.1
	c-0.4,0-0.9,0-1.3,0c-0.1,0-0.2,0-0.3,0c0,0,0,0-0.1,0s0,0-0.1,0c-0.1,0-0.2,0-0.3,0c-0.4,0-0.9,0-1.3,0c-0.3,0-0.7,0-1,0.1
	c-0.2,0-0.3,0-0.5,0.1c-9.3,1-17.4,6.3-22.1,14h0.1c-2.8,4.5-4.4,9.8-4.4,15.5h14.2c0-8.5,6.9-15.4,15.4-15.5v0h0h0h0.1h0h0v0
	c8.5,0.1,15.4,7,15.4,15.5h14.2C109.7,124.6,108.1,119.3,105.3,114.8z"/>
<g>
	<rect y="144.3" class="st7" width="160" height="15.7"/>
</g>
</svg>
