<?xml version="1.0" encoding="utf-8"?>
<!-- Generator: Adobe Illustrator 21.1.0, SVG Export Plug-In . SVG Version: 6.00 Build 0)  -->
<svg version="1.1" id="Layer_1" xmlns="http://www.w3.org/2000/svg" xmlns:xlink="http://www.w3.org/1999/xlink" x="0px" y="0px"
	 viewBox="0 0 160 160" style="enable-background:new 0 0 160 160;" xml:space="preserve">
<style type="text/css">
	.st0{fill:#37F4A6;}
	.st1{fill:#30E291;}
	.st2{fill:#FFFFFF;}
	.st3{fill:#E6E6E6;}
	.st4{fill:#FFED48;}
	.st5{fill:#D792F4;}
	.st6{fill:#BF80E0;}
	.st7{fill:#45C5FF;}
	.st8{fill:#46F29C;}
	.st9{fill:#EBEBEC;}
	.st10{fill:#F2F2F2;}
	.st11{fill:#666666;}
	.st12{fill:#31DB8E;}
	.st13{fill:#BE79E2;}
	.st14{fill:#EFD941;}
	.st15{fill:#BE7CE0;}
	.st16{fill:#BD80DD;}
	.st17{fill:#B375D3;}
	.st18{fill:#32BAEA;}
	.st19{fill:#66FFB9;}
</style>
<g>
	<rect class="st4" width="160" height="160"/>
</g>
<path class="st8" d="M78.9,107.7c-0.1,0-0.3,0-0.4,0C67.9,72.5,37.4,46,0,41.4v34.3V160h79h6.5H160V75.7V27.4
	C118.3,33.3,85.2,66.1,78.9,107.7z"/>
<rect y="107.7" class="st1" width="160" height="52.3"/>
<g>
	<path class="st7" d="M78.5,107.7c0,0-38.5,13.6-21.8,16.6s13.5,10.8-1.4,12.9C18.8,142.4,0,160,0,160h118.9c0,0-90.8-5.6-41.8-12.3
		c34.8-4.8,20.4-25.2-0.9-29.1c-12.1-2.2,2.5-10.8,2.5-10.8L78.5,107.7z"/>
</g>
</svg>
