<?xml version="1.0" encoding="utf-8"?>
<!-- Generator: Adobe Illustrator 21.1.0, SVG Export Plug-In . SVG Version: 6.00 Build 0)  -->
<svg version="1.1" id="Layer_1" xmlns="http://www.w3.org/2000/svg" xmlns:xlink="http://www.w3.org/1999/xlink" x="0px" y="0px"
	 viewBox="0 0 160 160" style="enable-background:new 0 0 160 160;" xml:space="preserve">
<style type="text/css">
	.st0{fill:#37F4A6;}
	.st1{fill:#30E291;}
	.st2{fill:#FFFFFF;}
	.st3{fill:#E6E6E6;}
	.st4{fill:#FFED48;}
	.st5{fill:#D792F4;}
	.st6{fill:#BF80E0;}
	.st7{fill:#45C5FF;}
	.st8{fill:#46F29C;}
	.st9{fill:#EBEBEC;}
	.st10{fill:#F2F2F2;}
	.st11{fill:#666666;}
	.st12{fill:#31DB8E;}
	.st13{fill:#BE79E2;}
	.st14{fill:#EFD941;}
	.st15{fill:#BE7CE0;}
	.st16{fill:#BD80DD;}
	.st17{fill:#B375D3;}
	.st18{fill:#32BAEA;}
	.st19{fill:#66FFB9;}
</style>
<g>
	<rect x="0.1" class="st5" width="160" height="160"/>
</g>
<g>
	<ellipse class="st6" cx="81.1" cy="120.5" rx="72.1" ry="9.1"/>
</g>
<path class="st7" d="M49.4,118c0,0,0.4,2.5,1.3,2.5c0.9,0,5.1,0.1,5.9-0.2s2.3-2.8,2.3-2.8L49.4,118z"/>
<path class="st7" d="M78.9,116.8c0,0,1.7,2.9,2.7,2.9c1,0,14.3,0,15.6-0.3c1.2-0.3,2.5-2.8,2.5-2.8L78.9,116.8z"/>
<path class="st7" d="M104.1,116.5c0,0,0.3,2.9,1.8,2.9c1.4,0,4.2,0.1,7.1-0.1c2.9-0.2,4.5-0.5,5-1.1c0.4-0.6,0.2-2.3,0.2-2.3
	L104.1,116.5z"/>
<path class="st7" d="M122.5,115.2c0,0,2.1,2.3,2.9,2.2s10.8-3.3,10.9-4c0.1-0.7,0-2.6,0-2.6L122.5,115.2z"/>
<path class="st7" d="M138.5,109.5c0,0,2.5,1.2,3.3,0.8s4.9-3.6,6.6-6.3c1.7-2.6,2.4-5.3,2.4-7.9s-2.3-5.5-2.3-5.5L138.5,109.5z"/>
<path class="st7" d="M12.4,115.2c0,0-0.1,2.1,2.1,2.9s6.4,2.8,9.3,2.9s6.3,0.3,6.8-0.3c0.5-0.5,1.2-2.3,1.2-2.3L12.4,115.2z"/>
<path class="st7" d="M35.8,118.4c0,0,0.1,2.6,1,2.5c0.9,0,6.6,0,7.1,0c0.5,0,1.6-2.8,1.6-2.8L35.8,118.4z"/>
<path class="st0" d="M74.5,60.9c1.9,1.3,17.2,11.2,26.9,16.7c9.7,5.5,15.7,10,17.9,10.4c2.1,0.4,8.7,0.5,11.5,0.1
	c2.8-0.4,8.5-1.7,11.5-1.3c2.9,0.4,6.3,3.9,6.3,3.9s1.9,3.9,1.2,7.2c-0.7,3.3-0.9,5.9-6.3,9.3c-5.5,3.6-14.5,6.9-20.9,8.1
	c-6.4,1.2-14.9,1.2-24.9,1.3c-10,0.1-18.7,0.3-18.7,0.3s-3.9-0.8-8.8-0.8c-4.9,0-11.2,1.5-11.2,1.5s-14.5,0.9-24.1,1.1
	c-9.6,0.1-21.6-2.5-22.4-3.3c-0.8-0.8-1.1-1.9-0.8-3.1c0.3-1.2,0.9-1.3,0.9-1.3s0-3,0.5-6c0.5-3,3.1-4.5,3.1-4.5s-0.7-3.2-0.5-7.1
	s1.5-9.9,3.1-15.3s3.1-10,3.1-10s1.1-2.1,6.6-1.9c2.7,0.1,3.8-1.2,8.1,5.7c3.7,5.9,14.6,4.7,17,3.8c2.4-0.9,11.4-5.5,12.6-7.9
	c1.2-2.3,2.5-6.3,2.7-7.2C69.2,59,72.7,59.5,74.5,60.9z"/>
<path class="st7" d="M118.8,87.8c-2.5-0.9-8.3-5.2-17.3-10.2C91.7,72,76.4,62.2,74.5,60.9c-1.9-1.3-5.3-1.8-5.6-0.6
	c-0.2,0.8-1.5,4.8-2.7,7.2c0,0,1.6-2.6,4.3-1.5c4.8,2,14.7,8.6,23,12.2C105.1,83.1,116.2,87,118.8,87.8z"/>
<g>
	<path class="st2" d="M116.3,84.2c-0.8-0.3-1.6,0.1-1.9,0.9l-0.7,2.1c-0.3,0.8,0.1,1.6,0.9,1.9c0.2,0.1,0.3,0.1,0.5,0.1
		c0.6,0,1.2-0.4,1.4-1l0.7-2.1C117.5,85.3,117.1,84.4,116.3,84.2z"/>
	<path class="st2" d="M110,81.1l-2.7,1.3l-2-4.8c-0.2-0.5-0.7-0.8-1.2-0.9c-0.1-0.2-0.2-0.4-0.3-0.5c-0.6-0.6-1.5-0.7-2.1-0.1
		l-2,1.8l-0.3-3.5c-0.1-0.8-0.8-1.4-1.6-1.4c-0.3,0-0.6,0.1-0.8,0.3c0-0.3-0.1-0.6-0.3-0.8c-0.5-0.7-1.4-0.8-2.1-0.3l-2.7,2v-3.9
		c0-0.8-0.7-1.5-1.5-1.5c-0.5,0-0.9,0.2-1.2,0.6c0.2-0.5,0.2-1.1-0.2-1.5c-0.5-0.7-1.4-0.8-2.1-0.3l-2.4,1.8l0.3-4
		c0.1-0.8-0.6-1.5-1.4-1.6c-0.1,0-0.3,0-0.4,0c0-0.4-0.1-0.8-0.4-1.1c-0.6-0.6-1.5-0.7-2.1-0.1l-6.3,5.6c-0.6,0.6-0.7,1.5-0.1,2.1
		c0.3,0.3,0.7,0.5,1.1,0.5c0.4,0,0.7-0.1,1-0.4l5.5-5l-0.4,7.1c0,0,0,0.1,0,0.1c0,0.1,0,0.1,0,0.2c0,0,0,0.1,0,0.1c0,0,0,0.1,0,0.1
		c0,0,0,0.1,0.1,0.1c0,0,0,0.1,0.1,0.1c0,0,0.1,0.1,0.1,0.1c0,0,0,0.1,0,0.1c0,0,0,0,0,0c0.1,0.1,0.1,0.1,0.2,0.2c0,0,0,0,0.1,0.1
		c0.1,0.1,0.2,0.1,0.3,0.2c0,0,0,0,0.1,0c0.1,0,0.1,0.1,0.2,0.1c0,0,0.1,0,0.1,0c0,0,0.1,0,0.1,0c0,0,0.1,0,0.1,0
		c0.2,0,0.3,0,0.4-0.1c0,0,0,0,0.1,0c0.1,0,0.3-0.1,0.4-0.2c0,0,0,0,0,0l5-3.9c0.1-0.1,0.2-0.1,0.2-0.2c-0.1,0.2-0.1,0.4-0.1,0.6
		v6.9c0,0,0,0,0,0c0,0.1,0,0.1,0,0.2c0,0,0,0.1,0,0.1c0,0,0,0.1,0,0.1c0,0,0,0.1,0,0.1c0,0,0,0.1,0.1,0.1c0,0,0.1,0.1,0.1,0.1
		c0,0,0,0,0,0c0,0,0,0,0.1,0.1c0,0.1,0.1,0.1,0.1,0.2c0,0,0.1,0.1,0.1,0.1c0.1,0,0.1,0.1,0.2,0.1c0,0,0.1,0,0.1,0.1
		c0.1,0,0.1,0.1,0.2,0.1c0,0,0.1,0,0.1,0c0.1,0,0.2,0,0.3,0c0,0,0,0,0,0s0,0,0,0c0,0,0,0,0,0c0.1,0,0.3,0,0.4-0.1c0,0,0.1,0,0.1,0
		c0.1,0,0.3-0.1,0.4-0.2c0,0,0,0,0,0l5.1-3.9c0,0,0,0,0,0l0.6,6.5c0,0.1,0,0.1,0.1,0.2c0,0.1,0,0.2,0.1,0.3c0,0.1,0.1,0.2,0.2,0.3
		c0,0,0,0.1,0.1,0.1c0,0,0.1,0,0.1,0.1c0,0,0,0,0.1,0.1c0.1,0.1,0.3,0.2,0.4,0.3c0,0,0,0,0.1,0c0.2,0.1,0.3,0.1,0.5,0.1c0,0,0,0,0,0
		c0,0,0,0,0,0c0,0,0,0,0,0c0,0,0,0,0,0c0,0,0.1,0,0.1,0c0.1,0,0.2,0,0.4-0.1c0,0,0,0,0.1,0c0.2-0.1,0.3-0.1,0.4-0.3c0,0,0,0,0,0
		l3.3-3l2.5,5.8c0,0,0,0,0,0c0,0,0,0,0,0c0,0.1,0.1,0.1,0.1,0.2c0,0.1,0.1,0.1,0.1,0.2c0.1,0.1,0.1,0.1,0.2,0.2c0,0,0.1,0.1,0.1,0.1
		c0.1,0,0.2,0.1,0.3,0.1c0,0,0.1,0,0.1,0.1c0.1,0,0.3,0.1,0.4,0.1c0.1,0,0.2,0,0.3,0c0,0,0.1,0,0.1,0c0.1,0,0.1,0,0.2-0.1
		c0,0,0,0,0,0c0,0,0,0,0,0l4.1-2c0.7-0.4,1.1-1.3,0.7-2C111.7,81,110.8,80.7,110,81.1z"/>
</g>
<path class="st1" d="M108.2,107.6c0,0-24-1.1-45.1-7.2c-20.7-6-29.5-13-47.2-9.6c-0.1,0.8-0.2,1.6-0.2,2.4c-0.2,3.9,0.5,7.1,0.5,7.1
	s-0.1,0.1-0.4,0.3c0.8,0,1.6-0.1,2.4-0.2c21.1-1.7,29.2,0.3,47.9,4.7C84.7,109.6,108.2,107.6,108.2,107.6z"/>
<path class="st7" d="M143.4,107.1c4.7-3.1,5.5-5.4,6-8.3c-0.6,0.2-15.8,5.4-27.8,7.5c-12.3,2.1-26.9,0.8-40.5-0.4
	c-13.6-1.2-38.8-6.4-44.5-7.2c-5.7-0.8-20.6,1.6-20.6,1.6s-2.5,1.4-3.1,4.5c-0.5,3-0.5,6-0.5,6s-0.6,0.1-0.9,1.3s0,2.3,0.8,3.1
	c0.8,0.8,12.8,3.5,22.4,3.3c9.6-0.1,24.1-1.1,24.1-1.1s6.3-1.5,11.2-1.5s8.8,0.8,8.8,0.8s8.7-0.1,18.7-0.3c10-0.1,18.5-0.1,24.9-1.3
	S138,110.7,143.4,107.1z"/>
<path class="st2" d="M143.4,107.1c4.7-3.1,5.5-5.4,6.1-8.3l-7.4,2.3c0,0-3.8,3.2-10.1,6.1c-6.3,2.9-17.4,4.4-28.3,4.7
	c-10.9,0.3-24.2-2.5-31.3-3.3c-7.1-0.9-18.9,0.1-23-0.2c-4.1-0.3-11.1-1.7-15.1-0.9c-3.9,0.7-13.7,3.2-16.8,3.8s-5.1-0.5-5.1-0.5
	s-0.6,0.1-0.9,1.3s0,2.3,0.8,3.1c0.8,0.8,12.8,3.5,22.4,3.3c9.6-0.1,24.1-1.1,24.1-1.1s6.3-1.5,11.2-1.5s8.8,0.8,8.8,0.8
	s8.7-0.1,18.7-0.3c10-0.1,18.5-0.1,24.9-1.3S138,110.7,143.4,107.1z"/>
</svg>
