<?xml version="1.0" encoding="utf-8"?>
<!-- Generator: Adobe Illustrator 21.1.0, SVG Export Plug-In . SVG Version: 6.00 Build 0)  -->
<svg version="1.1" id="Layer_1" xmlns="http://www.w3.org/2000/svg" xmlns:xlink="http://www.w3.org/1999/xlink" x="0px" y="0px"
	 viewBox="0 0 160 160" style="enable-background:new 0 0 160 160;" xml:space="preserve">
<style type="text/css">
	.st0{fill:#37F4A6;}
	.st1{fill:#30E291;}
	.st2{fill:#FFFFFF;}
	.st3{fill:#E6E6E6;}
	.st4{fill:#FFED48;}
	.st5{fill:#D792F4;}
	.st6{fill:#BF80E0;}
	.st7{fill:#45C5FF;}
	.st8{fill:#46F29C;}
	.st9{fill:#EBEBEC;}
	.st10{fill:#F2F2F2;}
	.st11{fill:#666666;}
	.st12{fill:#31DB8E;}
	.st13{fill:#BE79E2;}
	.st14{fill:#EFD941;}
	.st15{fill:#BE7CE0;}
	.st16{fill:#BD80DD;}
	.st17{fill:#B375D3;}
	.st18{fill:#32BAEA;}
	.st19{fill:#66FFB9;}
</style>
<rect x="0" class="st0" width="160" height="160"/>
<ellipse class="st1" cx="97.5" cy="120.9" rx="57.2" ry="12.4"/>
<g>
	<circle class="st2" cx="71.1" cy="77.6" r="48"/>
	<polygon class="st7" points="71.1,44.8 73.9,62.4 93.1,68.7 102.1,54.9 89.2,40.8 	"/>
	<polygon class="st7" points="97.4,88.8 82.6,102.4 85.7,115.6 103.9,109.9 109.7,94.2 	"/>
	<polygon class="st7" points="58.6,76.5 41.1,72 34.4,88.8 46.5,103.5 63.2,96.4 	"/>
	<path class="st7" d="M28.8,54.8l9.5-0.8l16-13.2v-8.2l-0.1,0C43.4,36.6,34.3,44.6,28.8,54.8z"/>
	<path class="st7" d="M114.8,57.5l-0.4-0.4l-1.8,2.7l5.2,20.4l1.2,0.5c0.1-1.1,0.1-2.1,0.1-3.2C119.2,70.4,117.6,63.6,114.8,57.5z"
		/>
	<path class="st7" d="M43.1,116.5l0.2,0.2c7.6,5.4,16.7,8.6,26.7,8.9v-2.5l-19.3-6.2L43.1,116.5z"/>
	<path class="st7" d="M23.3,82.5c0.4,3.7,1.2,7.3,2.4,10.8v-5.6l-2.2-5.6L23.3,82.5z"/>
</g>
</svg>
