<?xml version="1.0" encoding="utf-8"?>
<!-- Generator: Adobe Illustrator 21.1.0, SVG Export Plug-In . SVG Version: 6.00 Build 0)  -->
<svg version="1.1" id="Layer_1" xmlns="http://www.w3.org/2000/svg" xmlns:xlink="http://www.w3.org/1999/xlink" x="0px" y="0px"
	 viewBox="0 0 160 160" style="enable-background:new 0 0 160 160;" xml:space="preserve">
<style type="text/css">
	.st0{fill:#37F4A6;}
	.st1{fill:#30E291;}
	.st2{fill:#FFFFFF;}
	.st3{fill:#E6E6E6;}
	.st4{fill:#FFED48;}
	.st5{fill:#D792F4;}
	.st6{fill:#BF80E0;}
	.st7{fill:#45C5FF;}
	.st8{fill:#46F29C;}
	.st9{fill:#EBEBEC;}
	.st10{fill:#F2F2F2;}
	.st11{fill:#666666;}
	.st12{fill:#31DB8E;}
	.st13{fill:#BE79E2;}
	.st14{fill:#EFD941;}
	.st15{fill:#BE7CE0;}
	.st16{fill:#BD80DD;}
	.st17{fill:#B375D3;}
	.st18{fill:#32BAEA;}
	.st19{fill:#66FFB9;}
</style>
<g>
	<rect class="st4" width="160" height="160"/>
</g>
<path class="st0" d="M0,124c0,0,29-12,81-12s79,13.7,79,13.7V160H0V124z"/>
<path class="st1" d="M3.4,138.3c-4.7,20.1,62.1,9.9,62.1,9.9l7.6-29.7C73.2,118.5,8.2,118.2,3.4,138.3z"/>
<g>
	<path class="st5" d="M89.9,17.1c-12.3,3.8-12,6.6-14.4,9.6s-5.4,8-6.4,9.9s0,4.9,0,5.2s0.2,2.1,0.4,2.3c0.2,0.2,0.9,1.4,0.9,1.9
		S70.2,47,70.2,47s-1.3,2-2.8,4.7c-1.6,2.7-3.8,6.6-3.8,6.6s-2,1.9-3.2,3.2c-1.2,1.4-1.2,3.1-0.9,3.9c0.3,0.8,1.2,3.3,1.2,3.3
		s-0.4,1.3-0.9,5.3s-0.7,5.6-1,6.2c-0.3,0.7-0.6,1.5-0.3,2.5c0.3,1,0.2,3.7-0.5,7.2c-0.7,3.5-1.6,7.8-2.1,9.4
		c-0.5,1.6-1.5,3.7-1.3,4.5c0.2,0.8,1.2,2.2,3,2.7c1.8,0.5,3.2,0.5,3.2,0.5l1.4,4.5c0,0-1.3,3.1-2.6,6.3s-1.9,5.3-2.8,7.9
		c-0.9,2.6-2.6,8.9-2.6,8.9s-2.3,7.6-2.3,9.3s0.2,2.7,2.4,3.5c2.2,0.9,5.3,2.2,7.8,1.8c2.6-0.5,18.7-6,30.9-12.1
		c12.2-6.1,20.8-12,21.1-13.7c0.3-1.7,1.8-9.6-1.3-13.5c-3.1-3.9-7.6-7.2-9.7-9.9c-2.2-2.7-2.5-3.3-2.6-4.6s-0.3-2.5-0.1-2.8
		c0.3-0.3,1.2-0.7,1.2-2.8c0-2.1-0.3-8-0.2-9.7c0.1-1.7,0.4-3,0.4-3s1.1,0.2,2.5-0.1s2.7-1,3.2-2.5c0.6-1.6,1.6-5.9,2.1-11.9
		s0.7-14.8,1.2-21.4c0.6-6.7,0.5-10.7,0.5-11.3c0-0.6-0.4-1.4-0.4-2.1s0.4-1.7,0.4-2.4c0-0.7-0.5-2.6-1.2-3.2
		c-0.7-0.6-2.7-1.8-3.1-2c-0.4-0.2-0.3-1.1-0.8-1.4c-0.5-0.4-1.7-2.4-6.7-2.6S92.3,16.4,89.9,17.1z"/>
	<path class="st15" d="M105.2,40.6l-4.7,30.8c0,0,1.1,2.2,2.3,0.6C104,70.4,105.2,40.6,105.2,40.6z"/>
	<path class="st15" d="M67.8,63.6c0,0,2.2,2.1,3.1,3.4c0.9,1.3,1.7,3.7,2,3.7s4.1-0.7,4.1-0.7s-1.7,0.2-2.7-0.1
		c-0.9-0.3-1.3-1.4-1.3-1.4s0.9,0.8,2.3,0.5c1.5-0.3,2.3-0.8,1.7-1.6s-1.7-2.5-3.5-2.8s-3.3-0.1-3.7-0.1
		C69.4,64.5,67.8,63.6,67.8,63.6z"/>
	<path class="st15" d="M70.6,128.5c0,0,0.5-9.8,2.6-10.1c2.1-0.3,3.7-1,4-2.2c0.3-1.2-1.1-8.4-1.1-8.4l11.1-6.4
		c0,0-12.6,3.2-17.9,3.5c-5.3,0.3-6.9,0-6.9,0s1.5-5.4,2.9-11.2c1.4-5.8,1.3-8.3,1.3-8.3s1.1,0.7,2.5,0c1.4-0.7,4.3-5.4,4.3-5.4
		l-5,0c0,0-2.1,0.1-2.6-0.3c-0.5-0.5,0.6-1.1,0.6-1.1l7.4-0.5c0,0-5.9-1.5-7.9-1.4c-2.1,0.1-4.7,0.9-4.7,0.9s0.6-1.1,1.3-1.8
		c0.7-0.7,8.5-4.5,8.5-4.5s-4.7-5.7-7.1-7.7c-2.3-2-3.7-1.6-3.7-1.5c-0.7,1.2-0.7,2.6-0.5,3.3c0.3,0.8,1.2,3.3,1.2,3.3
		s-0.4,1.3-0.9,5.3s-0.7,5.6-1,6.2c-0.3,0.7-0.6,1.5-0.3,2.5c0.3,1,0.2,3.7-0.5,7.2c-0.7,3.5-1.6,7.8-2.1,9.4
		c-0.5,1.6-1.5,3.7-1.3,4.5c0.2,0.8,1.2,2.2,3,2.7c1.8,0.5,3.2,0.5,3.2,0.5l1.4,4.5c0,0-1.3,3.1-2.6,6.3s-1.9,5.3-2.8,7.9
		c-0.9,2.6-2.6,8.9-2.6,8.9s-2.3,7.6-2.3,9.3s0.2,2.7,2.4,3.5c2.2,0.9,5.3,2.2,7.8,1.8c0.9-0.2,3.3-0.9,6.7-2.1L70.6,128.5z"/>
	<path class="st15" d="M101.8,37.7c0,0-3.5-6.4-10-8.7c-6.5-2.3-10.2-1.7-14.7,0c-4.5,1.7-4.9,2.4-4.9,2.4l0,0
		c-1.4,2.1-2.6,4.2-3.2,5.3c-1,1.9,0,4.9,0,5.2s0.2,2.1,0.4,2.3c0.2,0.2,0.9,1.4,0.9,1.9S70.2,47,70.2,47s-1.3,2-2.8,4.7
		c-1.6,2.7-3.8,6.6-3.8,6.6s5.7-4.1,9.3-8.8c3.5-4.7,5-9.7,6-10.1c1-0.4,4.3-0.8,5.6-0.8c1.3,0,2.4,0.8,2.9,1.7
		c0.5,0.9,1.1,2.3,1.1,2.3s1.8-1,6-2.4C98.7,38.7,101.8,37.7,101.8,37.7z"/>
</g>
</svg>
