<?xml version="1.0" encoding="utf-8"?>
<!-- Generator: Adobe Illustrator 21.1.0, SVG Export Plug-In . SVG Version: 6.00 Build 0)  -->
<svg version="1.1" id="Layer_1" xmlns="http://www.w3.org/2000/svg" xmlns:xlink="http://www.w3.org/1999/xlink" x="0px" y="0px"
	 viewBox="0 0 160 160" style="enable-background:new 0 0 160 160;" xml:space="preserve">
<style type="text/css">
	.st0{fill:#37F4A6;}
	.st1{fill:#30E291;}
	.st2{fill:#FFFFFF;}
	.st3{fill:#E6E6E6;}
	.st4{fill:#FFED48;}
	.st5{fill:#D792F4;}
	.st6{fill:#BF80E0;}
	.st7{fill:#45C5FF;}
	.st8{fill:#46F29C;}
	.st9{fill:#EBEBEC;}
	.st10{fill:#F2F2F2;}
	.st11{fill:#666666;}
	.st12{fill:#31DB8E;}
	.st13{fill:#BE79E2;}
	.st14{fill:#EFD941;}
	.st15{fill:#BE7CE0;}
	.st16{fill:#BD80DD;}
	.st17{fill:#B375D3;}
	.st18{fill:#32BAEA;}
	.st19{fill:#66FFB9;}
</style>
<rect x="0" class="st0" width="160" height="160"/>
<rect x="31.8" y="83.3" class="st2" width="96.6" height="76.7"/>
<polygon class="st2" points="35.8,83.3 43.9,46.6 51.9,83.3 "/>
<polygon class="st2" points="31.8,83.3 33.8,65 35.8,83.3 "/>
<polygon class="st2" points="51.9,83.3 53.9,65 56,83.3 "/>
<polygon class="st2" points="108.2,83.3 116.2,46.6 124.3,83.3 "/>
<polygon class="st2" points="104.1,83.3 106.1,65 108.2,83.3 "/>
<polygon class="st2" points="124.3,83.3 126.3,65 128.3,83.3 "/>
<polygon class="st2" points="64.1,83.3 80,11 95.9,83.3 "/>
<polygon class="st2" points="56.2,83.3 60.2,47.2 64.1,83.3 "/>
<polygon class="st2" points="95.9,83.3 99.9,47.2 103.9,83.3 "/>
<path class="st10" d="M91.5,155.3h-23v-27.5c0-6.4,5.1-11.5,11.5-11.5h0c6.4,0,11.5,5.1,11.5,11.5V155.3z"/>
<polygon class="st10" points="53.9,160 55.7,160 56,83.3 53.9,65 "/>
<polygon class="st10" points="102.1,160 103.9,160 103.9,83.3 102.1,67.3 "/>
<polygon class="st10" points="126.6,160 128.3,160 128.3,83.3 126.3,65 "/>
<g>
	<path class="st10" d="M37.5,111.8h-1V95.2c0-3.8,3.1-6.8,6.8-6.8c3.8,0,6.8,3.1,6.8,6.8h-1c0-3.2-2.6-5.8-5.8-5.8s-5.8,2.6-5.8,5.8
		V111.8z"/>
</g>
<g>
	<path class="st10" d="M37.5,144.7h-1V128c0-3.8,3.1-6.8,6.8-6.8c3.8,0,6.8,3.1,6.8,6.8h-1c0-3.2-2.6-5.8-5.8-5.8s-5.8,2.6-5.8,5.8
		V144.7z"/>
</g>
<g>
	<path class="st10" d="M110.4,111.8h-1V95.2c0-3.8,3.1-6.8,6.8-6.8c3.8,0,6.8,3.1,6.8,6.8h-1c0-3.2-2.6-5.8-5.8-5.8
		s-5.8,2.6-5.8,5.8V111.8z"/>
</g>
<g>
	<path class="st10" d="M110.4,144.7h-1V128c0-3.8,3.1-6.8,6.8-6.8c3.8,0,6.8,3.1,6.8,6.8h-1c0-3.2-2.6-5.8-5.8-5.8s-5.8,2.6-5.8,5.8
		V144.7z"/>
</g>
<g>
	<path class="st10" d="M71.7,103.9c-2.4-2.3-3.7-5.4-3.7-8.7c0-6.6,5.4-12,12-12c3.1,0,6.1,1.2,8.3,3.4l-0.7,0.7
		c-2.1-2-4.8-3.1-7.6-3.1c-6.1,0-11,4.9-11,11c0,3,1.2,5.9,3.4,8L71.7,103.9z"/>
</g>
<rect x="55.7" y="155.3" class="st10" width="46.4" height="4.7"/>
</svg>
