<?xml version="1.0" encoding="utf-8"?>
<!-- Generator: Adobe Illustrator 21.1.0, SVG Export Plug-In . SVG Version: 6.00 Build 0)  -->
<svg version="1.1" id="Layer_1" xmlns="http://www.w3.org/2000/svg" xmlns:xlink="http://www.w3.org/1999/xlink" x="0px" y="0px"
	 viewBox="0 0 160 160" style="enable-background:new 0 0 160 160;" xml:space="preserve">
<style type="text/css">
	.st0{fill:#37F4A6;}
	.st1{fill:#30E291;}
	.st2{fill:#FFFFFF;}
	.st3{fill:#E6E6E6;}
	.st4{fill:#FFED48;}
	.st5{fill:#D792F4;}
	.st6{fill:#BF80E0;}
	.st7{fill:#45C5FF;}
	.st8{fill:#46F29C;}
	.st9{fill:#EBEBEC;}
	.st10{fill:#F2F2F2;}
	.st11{fill:#666666;}
	.st12{fill:#31DB8E;}
	.st13{fill:#BE79E2;}
	.st14{fill:#EFD941;}
	.st15{fill:#BE7CE0;}
	.st16{fill:#BD80DD;}
	.st17{fill:#B375D3;}
	.st18{fill:#32BAEA;}
	.st19{fill:#66FFB9;}
</style>
<g>
	<rect x="0" class="st7" width="160" height="160"/>
</g>
<polygon class="st8" points="132.4,0 98.9,33.5 77.3,33.5 52.6,0 0,0 0,160 160,160 160,0 "/>
<path class="st1" d="M77.3,33.5L52.6,160H0V85.8c0,0,14.3-12.5,25.9-39.5S34.4,0,34.4,0h18.2L77.3,33.5z"/>
<path class="st1" d="M145.4,0c0,0,0.3,9.2-20.5,41.8s-35,42-35,42l1.5,75.5L160,160l0-160H145.4z"/>
<path class="st2" d="M77.3,33.5c0,0-11.9,3.7-17.8,28.3S52.6,160,52.6,160h43.3c0,0-4.7-78.5-3-94.9s6-31.7,6-31.7
	s-5.4-1.3-11.3-1.3C81.6,32.2,77.3,33.5,77.3,33.5z"/>
<path class="st10" d="M61.6,160c0,0-5.7-18-17.4-17.7S22.9,160,22.9,160L61.6,160z"/>
<path class="st10" d="M82.3,160c0,0-6.8-13.4-15.9-13.2S52.2,160,52.2,160L82.3,160z"/>
<path class="st10" d="M77.3,160c0,0,13.7-20.6,26-20.2s17.3,20.2,17.3,20.2L77.3,160z"/>
<path class="st2" d="M96.4,160c0,0-5.2-10.2-12.2-10.1c-7,0.1-10.9,10.1-10.9,10.1H96.4z"/>
<path class="st2" d="M67.3,160c0,0-5.2-10.2-12.2-10.1c-7,0.1-10.9,10.1-10.9,10.1H67.3z"/>
<g>
	<path class="st10" d="M64.2,137.1c-0.9,0-1.7-0.7-1.7-1.7c0-0.2-0.8-23.2,1.1-47.2c2-25.3,7-32.8,7.2-33.1c0.6-0.8,1.6-1,2.4-0.4
		c0.8,0.5,1,1.6,0.4,2.4c-0.1,0.1-4.7,7.4-6.6,31.4c-1.9,23.8-1.1,46.6-1.1,46.8C66,136.2,65.2,137,64.2,137.1
		C64.2,137.1,64.2,137.1,64.2,137.1z"/>
</g>
<g>
	<path class="st10" d="M75.3,144.1c-0.9,0-1.7-0.7-1.7-1.7c0-0.2-0.9-24-0.6-41.1c0.2-17.1,1.3-30.1,1.3-30.3c0.1-1,0.9-1.7,1.9-1.6
		c1,0.1,1.7,0.9,1.6,1.9c0,0.1-1,13.1-1.3,30.1c-0.2,17,0.6,40.7,0.6,40.9C77.1,143.2,76.3,144,75.3,144.1
		C75.4,144.1,75.3,144.1,75.3,144.1z"/>
</g>
<g>
	<path class="st10" d="M86,130.3c-0.9,0-1.7-0.7-1.7-1.6c0-0.1-0.8-12.9-1.1-35.7c-0.3-22.9,2.2-36.7,2.3-37.3
		c0.2-0.9,1.1-1.6,2-1.4c1,0.2,1.6,1.1,1.4,2c0,0.1-2.6,14-2.3,36.6c0.3,22.7,1.1,35.4,1.1,35.5c0.1,1-0.7,1.8-1.6,1.9
		C86.1,130.3,86.1,130.3,86,130.3z"/>
</g>
</svg>
