<?xml version="1.0" encoding="utf-8"?>
<!-- Generator: Adobe Illustrator 21.1.0, SVG Export Plug-In . SVG Version: 6.00 Build 0)  -->
<svg version="1.1" id="Layer_1" xmlns="http://www.w3.org/2000/svg" xmlns:xlink="http://www.w3.org/1999/xlink" x="0px" y="0px"
	 viewBox="0 0 300 160.3" style="enable-background:new 0 0 300 160.3;" xml:space="preserve">
<style type="text/css">
	.st0{fill:#FFFFFF;}
	.st1{fill:#D792F4;}
	.st2{fill:#37F4A6;}
	.st3{fill:#FFED48;}
</style>
<path class="st0" d="M31.1,135l22.5,22.5H34.5l-17.2-17.2v17.2H2.4V85.2h14.9v44.2l15-15h19.3L31.1,135z"/>
<path class="st0" d="M70.8,134.9c0,8.5,2.3,11.8,8.5,11.8s8.5-3.3,8.5-11.8v-20.5h14.9v24.1c0,14.5-7.2,20.3-23.4,20.3
	s-23.4-5.8-23.4-20.3v-24.1h14.9V134.9z"/>
<path class="st0" d="M111.9,91.1h14.9v66.5h-14.9V91.1z"/>
<path class="st0" d="M155.2,113.1c5.8,0,10.6,1.9,14.1,5.4v-4.1h14.9v43.1h-14.7v-4.9h-0.2c-3.2,3.5-8.2,6.1-14.1,6.1
	c-12.6,0-21.4-10.2-21.4-22.8C133.7,123.4,142.6,113.1,155.2,113.1z M159.6,146.1c5.8,0,10-4.2,10-10.1c0-6-4.5-10.2-10-10.2
	c-5.6,0-10.1,4.2-10.1,10.2C149.6,141.9,153.6,146.1,159.6,146.1z"/>
<path class="st0" d="M194.3,114.4h14.9v4.5h0.2c3.4-3.4,7.6-5.8,12.4-5.8c7.9,0,18.9,4,18.9,16v28.4h-14.9v-24.4
	c0-4.3-2.9-8.4-7.7-8.4c-4.5,0-8.8,4.1-8.8,8.4v24.4h-14.9L194.3,114.4L194.3,114.4z"/>
<path class="st0" d="M268.2,113.1c5.8,0,10.6,1.9,14.1,5.4v-4.1h14.9v43.1h-14.7v-4.9h-0.2c-3.2,3.5-8.2,6.1-14.1,6.1
	c-12.6,0-21.4-10.2-21.4-22.8C246.8,123.4,255.6,113.1,268.2,113.1z M272.7,146.1c5.8,0,10-4.2,10-10.1c0-6-4.5-10.2-10-10.2
	c-5.6,0-10.1,4.2-10.1,10.2C262.6,141.9,266.6,146.1,272.7,146.1z"/>
<g>
	<path class="st1" d="M237.4,104.6h-23.7c0-43.5-35.4-78.9-78.9-78.9S56,61.1,56,104.6H32.3c0-56.5,46-102.5,102.5-102.5
		C191.4,2.1,237.4,48.1,237.4,104.6z"/>
</g>
<g>
	<path class="st2" d="M207.5,104.6h-22.7c0-27.6-22.4-50-50-50s-50,22.4-50,50H62.2c0-40.1,32.6-72.7,72.7-72.7
		S207.5,64.5,207.5,104.6z"/>
</g>
<path class="st3" d="M134.9,61.9c-15.3,0-28.8,8.2-36.3,20.4h36.3l0,0l0,0h0.2l0,0c12.2,0.1,22.1,10.1,22.1,22.3h20.4
	C177.5,81.1,158.4,61.9,134.9,61.9z"/>
</svg>
