<?xml version="1.0" encoding="utf-8"?>
<!-- Generator: Adobe Illustrator 21.1.0, SVG Export Plug-In . SVG Version: 6.00 Build 0)  -->
<svg version="1.1" id="Layer_1" xmlns="http://www.w3.org/2000/svg" xmlns:xlink="http://www.w3.org/1999/xlink" x="0px" y="0px"
	 viewBox="0 0 160 160" style="enable-background:new 0 0 160 160;" xml:space="preserve">
<style type="text/css">
	.st0{fill:#E6E6E6;}
</style>
<g>
	<path class="st0" d="M159,141.3c0,4.7-1.8,8.8-5.3,12.3c-3.6,3.6-7.7,5.3-12.3,5.3H18.7c-4.7,0-8.8-1.8-12.3-5.3
		C2.8,150.1,1,146,1,141.3V18.7C1,14,2.8,9.9,6.4,6.3C10,2.8,14.1,1,18.7,1h122.6c4.7,0,8.8,1.8,12.3,5.3c3.6,3.6,5.3,7.7,5.3,12.3
		V141.3z M49.2,93.2l-30.4,39.5h122.6L101.9,80l-30.4,39.5L49.2,93.2z"/>
</g>
</svg>
