<?xml version="1.0" encoding="utf-8"?>
<!-- Generator: Adobe Illustrator 20.1.0, SVG Export Plug-In . SVG Version: 6.00 Build 0)  -->
<svg version="1.1" id="Layer_1" xmlns="http://www.w3.org/2000/svg" xmlns:xlink="http://www.w3.org/1999/xlink" x="0px" y="0px"
	 viewBox="0 0 16 16" style="enable-background:new 0 0 16 16;" xml:space="preserve">
<style type="text/css">
	.st0{fill:none;stroke:#6D6E71;stroke-miterlimit:10;}
</style>
<path class="st0" d="M6.2,14.7c0,0,0-1.4-0.2-1.7c-0.2-0.3-2.1-0.6-2.6-2.8C3.2,9.1,3.2,8.6,3,7.5c-0.2-1.1,1.7-1,1.8,0
	c0.1,1,0.3,1.8,0.3,1.8"/>
<path class="st0" d="M4.8,7.5c0,0-0.3-3-0.3-4c0-1,1.4-1.4,1.6-0.2s0.5,3.9,0.5,3.9"/>
<path class="st0" d="M6.5,7.2c0,0-0.4-3.8-0.4-4.8c0-1,1.4-1.4,1.6-0.2s0.6,4.5,0.6,4.5"/>
<path class="st0" d="M8.3,6.7c0,0-0.3-3-0.3-4c0-1,1.4-1.4,1.6-0.2s0.6,3.9,0.6,3.9"/>
<path class="st0" d="M10.1,6.5c0,0-0.2-2.3-0.2-3.3c0-1,1.4-1.4,1.6-0.2s0.2,1.8,0.4,3.3c0.2,1.5,0.5,3.6,0.2,4.5s-1.3,1.5-1.3,2.2
	s0,1.3,0,1.3"/>
</svg>
