<?xml version="1.0" encoding="utf-8"?>
<!-- Generator: Adobe Illustrator 20.1.0, SVG Export Plug-In . SVG Version: 6.00 Build 0)  -->
<svg version="1.1" id="Layer_1" xmlns="http://www.w3.org/2000/svg" xmlns:xlink="http://www.w3.org/1999/xlink" x="0px" y="0px"
	 viewBox="0 0 30 30" style="enable-background:new 0 0 30 30;" xml:space="preserve">
<style type="text/css">
	.st0{fill:#8E8E8E;}
</style>
<g>
	<path class="st0" d="M21.4,18.9l8.4,8.4l-2.5,2.5l-8.4-8.4V20l-0.5-0.5c-2,1.7-4.4,2.6-7.1,2.6c-3.1,0-5.7-1.1-7.8-3.2
		s-3.2-4.7-3.2-7.8c0-3.1,1.1-5.7,3.2-7.8c2.1-2.1,4.7-3.2,7.8-3.2c3.1,0,5.7,1.1,7.8,3.2c2.1,2.1,3.2,4.7,3.2,7.8
		c0,2.7-0.9,5.1-2.6,7.1l0.5,0.5H21.4z M5.9,16.6c1.5,1.5,3.3,2.2,5.4,2.2c2.1,0,3.9-0.7,5.4-2.2c1.5-1.5,2.2-3.3,2.2-5.4
		c0-2.1-0.7-3.9-2.2-5.4c-1.5-1.5-3.3-2.2-5.4-2.2c-2.1,0-3.9,0.7-5.4,2.2c-1.5,1.5-2.2,3.3-2.2,5.4C3.6,13.4,4.4,15.2,5.9,16.6z"/>
</g>
</svg>
